G04 Layer: BottomLayer*
G04 EasyEDA v6.4.7, 2020-12-07T19:31:32+01:00*
G04 02f0051ec37e44d6b2a2dac138836381,6c12292d01d74c0c9c6e030c211cd8ae,10*
G04 Gerber Generator version 0.2*
G04 Scale: 100 percent, Rotated: No, Reflected: No *
G04 Dimensions in millimeters *
G04 leading zeros omitted , absolute positions ,3 integer and 3 decimal *
%FSLAX33Y33*%
%MOMM*%
G90*
D02*

%ADD11C,0.899998*%
%ADD12C,1.999996*%
%ADD14R,1.999996X1.574800*%
%ADD15R,1.599997X1.999996*%
%ADD16R,1.574800X1.999996*%

%LPD*%
G36*
G01X52854Y55496D02*
G01X358Y55496D01*
G01X343Y55495D01*
G01X329Y55492D01*
G01X315Y55487D01*
G01X303Y55480D01*
G01X291Y55471D01*
G01X281Y55461D01*
G01X272Y55449D01*
G01X265Y55437D01*
G01X260Y55423D01*
G01X257Y55409D01*
G01X256Y55394D01*
G01X256Y358D01*
G01X257Y343D01*
G01X260Y329D01*
G01X265Y315D01*
G01X272Y303D01*
G01X281Y291D01*
G01X291Y281D01*
G01X303Y272D01*
G01X315Y265D01*
G01X329Y260D01*
G01X343Y257D01*
G01X358Y256D01*
G01X52854Y256D01*
G01X52869Y257D01*
G01X52883Y260D01*
G01X52897Y265D01*
G01X52909Y272D01*
G01X52921Y281D01*
G01X52931Y291D01*
G01X52940Y303D01*
G01X52947Y315D01*
G01X52952Y329D01*
G01X52955Y343D01*
G01X52956Y358D01*
G01X52956Y55394D01*
G01X52955Y55409D01*
G01X52952Y55423D01*
G01X52947Y55437D01*
G01X52940Y55449D01*
G01X52931Y55461D01*
G01X52921Y55471D01*
G01X52909Y55480D01*
G01X52897Y55487D01*
G01X52883Y55492D01*
G01X52869Y55495D01*
G01X52854Y55496D01*
G37*

%LPC*%
G36*
G01X49344Y54325D02*
G01X49276Y54326D01*
G01X49207Y54325D01*
G01X49139Y54322D01*
G01X49071Y54317D01*
G01X49004Y54310D01*
G01X48936Y54300D01*
G01X48869Y54289D01*
G01X48802Y54276D01*
G01X48735Y54261D01*
G01X48669Y54243D01*
G01X48604Y54224D01*
G01X48539Y54203D01*
G01X48475Y54179D01*
G01X48412Y54154D01*
G01X48349Y54127D01*
G01X48287Y54098D01*
G01X48227Y54067D01*
G01X48167Y54035D01*
G01X48108Y54000D01*
G01X48050Y53964D01*
G01X47994Y53927D01*
G01X47938Y53887D01*
G01X47884Y53846D01*
G01X47831Y53803D01*
G01X47779Y53759D01*
G01X47729Y53712D01*
G01X47680Y53665D01*
G01X47633Y53616D01*
G01X47586Y53566D01*
G01X47542Y53514D01*
G01X47499Y53461D01*
G01X47458Y53407D01*
G01X47418Y53351D01*
G01X47381Y53295D01*
G01X47345Y53237D01*
G01X47310Y53178D01*
G01X47278Y53118D01*
G01X47247Y53058D01*
G01X47218Y52996D01*
G01X47191Y52933D01*
G01X47166Y52870D01*
G01X47142Y52806D01*
G01X47121Y52741D01*
G01X47102Y52676D01*
G01X47084Y52610D01*
G01X47069Y52543D01*
G01X47056Y52476D01*
G01X47045Y52409D01*
G01X47035Y52341D01*
G01X47028Y52274D01*
G01X47023Y52206D01*
G01X47020Y52138D01*
G01X47019Y52070D01*
G01X47020Y52001D01*
G01X47023Y51933D01*
G01X47028Y51865D01*
G01X47035Y51798D01*
G01X47045Y51730D01*
G01X47056Y51663D01*
G01X47069Y51596D01*
G01X47084Y51529D01*
G01X47102Y51463D01*
G01X47121Y51398D01*
G01X47142Y51333D01*
G01X47166Y51269D01*
G01X47191Y51206D01*
G01X47218Y51143D01*
G01X47247Y51081D01*
G01X47278Y51021D01*
G01X47310Y50961D01*
G01X47345Y50902D01*
G01X47381Y50844D01*
G01X47418Y50788D01*
G01X47458Y50732D01*
G01X47499Y50678D01*
G01X47542Y50625D01*
G01X47586Y50573D01*
G01X47633Y50523D01*
G01X47680Y50474D01*
G01X47729Y50427D01*
G01X47779Y50380D01*
G01X47831Y50336D01*
G01X47884Y50293D01*
G01X47938Y50252D01*
G01X47994Y50212D01*
G01X48050Y50175D01*
G01X48108Y50139D01*
G01X48167Y50104D01*
G01X48227Y50072D01*
G01X48287Y50041D01*
G01X48349Y50012D01*
G01X48412Y49985D01*
G01X48475Y49960D01*
G01X48539Y49936D01*
G01X48604Y49915D01*
G01X48669Y49896D01*
G01X48735Y49878D01*
G01X48802Y49863D01*
G01X48869Y49850D01*
G01X48936Y49839D01*
G01X49004Y49829D01*
G01X49071Y49822D01*
G01X49139Y49817D01*
G01X49207Y49814D01*
G01X49276Y49813D01*
G01X49344Y49814D01*
G01X49412Y49817D01*
G01X49480Y49822D01*
G01X49547Y49829D01*
G01X49615Y49839D01*
G01X49682Y49850D01*
G01X49749Y49863D01*
G01X49816Y49878D01*
G01X49882Y49896D01*
G01X49947Y49915D01*
G01X50012Y49936D01*
G01X50076Y49960D01*
G01X50139Y49985D01*
G01X50202Y50012D01*
G01X50264Y50041D01*
G01X50324Y50072D01*
G01X50384Y50104D01*
G01X50443Y50139D01*
G01X50501Y50175D01*
G01X50557Y50212D01*
G01X50613Y50252D01*
G01X50667Y50293D01*
G01X50720Y50336D01*
G01X50772Y50380D01*
G01X50822Y50427D01*
G01X50871Y50474D01*
G01X50918Y50523D01*
G01X50965Y50573D01*
G01X51009Y50625D01*
G01X51052Y50678D01*
G01X51093Y50732D01*
G01X51133Y50788D01*
G01X51170Y50844D01*
G01X51206Y50902D01*
G01X51241Y50961D01*
G01X51273Y51021D01*
G01X51304Y51081D01*
G01X51333Y51143D01*
G01X51360Y51206D01*
G01X51385Y51269D01*
G01X51409Y51333D01*
G01X51430Y51398D01*
G01X51449Y51463D01*
G01X51467Y51529D01*
G01X51482Y51596D01*
G01X51495Y51663D01*
G01X51506Y51730D01*
G01X51516Y51798D01*
G01X51523Y51865D01*
G01X51528Y51933D01*
G01X51531Y52001D01*
G01X51532Y52070D01*
G01X51531Y52138D01*
G01X51528Y52206D01*
G01X51523Y52274D01*
G01X51516Y52341D01*
G01X51506Y52409D01*
G01X51495Y52476D01*
G01X51482Y52543D01*
G01X51467Y52610D01*
G01X51449Y52676D01*
G01X51430Y52741D01*
G01X51409Y52806D01*
G01X51385Y52870D01*
G01X51360Y52933D01*
G01X51333Y52996D01*
G01X51304Y53058D01*
G01X51273Y53118D01*
G01X51241Y53178D01*
G01X51206Y53237D01*
G01X51170Y53295D01*
G01X51133Y53351D01*
G01X51093Y53407D01*
G01X51052Y53461D01*
G01X51009Y53514D01*
G01X50965Y53566D01*
G01X50918Y53616D01*
G01X50871Y53665D01*
G01X50822Y53712D01*
G01X50772Y53759D01*
G01X50720Y53803D01*
G01X50667Y53846D01*
G01X50613Y53887D01*
G01X50557Y53927D01*
G01X50501Y53964D01*
G01X50443Y54000D01*
G01X50384Y54035D01*
G01X50324Y54067D01*
G01X50264Y54098D01*
G01X50202Y54127D01*
G01X50139Y54154D01*
G01X50076Y54179D01*
G01X50012Y54203D01*
G01X49947Y54224D01*
G01X49882Y54243D01*
G01X49816Y54261D01*
G01X49749Y54276D01*
G01X49682Y54289D01*
G01X49615Y54300D01*
G01X49547Y54310D01*
G01X49480Y54317D01*
G01X49412Y54322D01*
G01X49344Y54325D01*
G37*
G36*
G01X49344Y6065D02*
G01X49276Y6066D01*
G01X49207Y6065D01*
G01X49139Y6062D01*
G01X49071Y6057D01*
G01X49004Y6050D01*
G01X48936Y6040D01*
G01X48869Y6029D01*
G01X48802Y6016D01*
G01X48735Y6001D01*
G01X48669Y5983D01*
G01X48604Y5964D01*
G01X48539Y5943D01*
G01X48475Y5919D01*
G01X48412Y5894D01*
G01X48349Y5867D01*
G01X48287Y5838D01*
G01X48227Y5807D01*
G01X48167Y5775D01*
G01X48108Y5740D01*
G01X48050Y5704D01*
G01X47994Y5667D01*
G01X47938Y5627D01*
G01X47884Y5586D01*
G01X47831Y5543D01*
G01X47779Y5499D01*
G01X47729Y5452D01*
G01X47680Y5405D01*
G01X47633Y5356D01*
G01X47586Y5306D01*
G01X47542Y5254D01*
G01X47499Y5201D01*
G01X47458Y5147D01*
G01X47418Y5091D01*
G01X47381Y5035D01*
G01X47345Y4977D01*
G01X47310Y4918D01*
G01X47278Y4858D01*
G01X47247Y4798D01*
G01X47218Y4736D01*
G01X47191Y4673D01*
G01X47166Y4610D01*
G01X47142Y4546D01*
G01X47121Y4481D01*
G01X47102Y4416D01*
G01X47084Y4350D01*
G01X47069Y4283D01*
G01X47056Y4216D01*
G01X47045Y4149D01*
G01X47035Y4081D01*
G01X47028Y4014D01*
G01X47023Y3946D01*
G01X47020Y3878D01*
G01X47019Y3810D01*
G01X47020Y3741D01*
G01X47023Y3673D01*
G01X47028Y3605D01*
G01X47035Y3538D01*
G01X47045Y3470D01*
G01X47056Y3403D01*
G01X47069Y3336D01*
G01X47084Y3269D01*
G01X47102Y3203D01*
G01X47121Y3138D01*
G01X47142Y3073D01*
G01X47166Y3009D01*
G01X47191Y2946D01*
G01X47218Y2883D01*
G01X47247Y2821D01*
G01X47278Y2761D01*
G01X47310Y2701D01*
G01X47345Y2642D01*
G01X47381Y2584D01*
G01X47418Y2528D01*
G01X47458Y2472D01*
G01X47499Y2418D01*
G01X47542Y2365D01*
G01X47586Y2313D01*
G01X47633Y2263D01*
G01X47680Y2214D01*
G01X47729Y2167D01*
G01X47779Y2120D01*
G01X47831Y2076D01*
G01X47884Y2033D01*
G01X47938Y1992D01*
G01X47994Y1952D01*
G01X48050Y1915D01*
G01X48108Y1879D01*
G01X48167Y1844D01*
G01X48227Y1812D01*
G01X48287Y1781D01*
G01X48349Y1752D01*
G01X48412Y1725D01*
G01X48475Y1700D01*
G01X48539Y1676D01*
G01X48604Y1655D01*
G01X48669Y1636D01*
G01X48735Y1618D01*
G01X48802Y1603D01*
G01X48869Y1590D01*
G01X48936Y1579D01*
G01X49004Y1569D01*
G01X49071Y1562D01*
G01X49139Y1557D01*
G01X49207Y1554D01*
G01X49276Y1553D01*
G01X49344Y1554D01*
G01X49412Y1557D01*
G01X49480Y1562D01*
G01X49547Y1569D01*
G01X49615Y1579D01*
G01X49682Y1590D01*
G01X49749Y1603D01*
G01X49816Y1618D01*
G01X49882Y1636D01*
G01X49947Y1655D01*
G01X50012Y1676D01*
G01X50076Y1700D01*
G01X50139Y1725D01*
G01X50202Y1752D01*
G01X50264Y1781D01*
G01X50324Y1812D01*
G01X50384Y1844D01*
G01X50443Y1879D01*
G01X50501Y1915D01*
G01X50557Y1952D01*
G01X50613Y1992D01*
G01X50667Y2033D01*
G01X50720Y2076D01*
G01X50772Y2120D01*
G01X50822Y2167D01*
G01X50871Y2214D01*
G01X50918Y2263D01*
G01X50965Y2313D01*
G01X51009Y2365D01*
G01X51052Y2418D01*
G01X51093Y2472D01*
G01X51133Y2528D01*
G01X51170Y2584D01*
G01X51206Y2642D01*
G01X51241Y2701D01*
G01X51273Y2761D01*
G01X51304Y2821D01*
G01X51333Y2883D01*
G01X51360Y2946D01*
G01X51385Y3009D01*
G01X51409Y3073D01*
G01X51430Y3138D01*
G01X51449Y3203D01*
G01X51467Y3269D01*
G01X51482Y3336D01*
G01X51495Y3403D01*
G01X51506Y3470D01*
G01X51516Y3538D01*
G01X51523Y3605D01*
G01X51528Y3673D01*
G01X51531Y3741D01*
G01X51532Y3810D01*
G01X51531Y3878D01*
G01X51528Y3946D01*
G01X51523Y4014D01*
G01X51516Y4081D01*
G01X51506Y4149D01*
G01X51495Y4216D01*
G01X51482Y4283D01*
G01X51467Y4350D01*
G01X51449Y4416D01*
G01X51430Y4481D01*
G01X51409Y4546D01*
G01X51385Y4610D01*
G01X51360Y4673D01*
G01X51333Y4736D01*
G01X51304Y4798D01*
G01X51273Y4858D01*
G01X51241Y4918D01*
G01X51206Y4977D01*
G01X51170Y5035D01*
G01X51133Y5091D01*
G01X51093Y5147D01*
G01X51052Y5201D01*
G01X51009Y5254D01*
G01X50965Y5306D01*
G01X50918Y5356D01*
G01X50871Y5405D01*
G01X50822Y5452D01*
G01X50772Y5499D01*
G01X50720Y5543D01*
G01X50667Y5586D01*
G01X50613Y5627D01*
G01X50557Y5667D01*
G01X50501Y5704D01*
G01X50443Y5740D01*
G01X50384Y5775D01*
G01X50324Y5807D01*
G01X50264Y5838D01*
G01X50202Y5867D01*
G01X50139Y5894D01*
G01X50076Y5919D01*
G01X50012Y5943D01*
G01X49947Y5964D01*
G01X49882Y5983D01*
G01X49816Y6001D01*
G01X49749Y6016D01*
G01X49682Y6029D01*
G01X49615Y6040D01*
G01X49547Y6050D01*
G01X49480Y6057D01*
G01X49412Y6062D01*
G01X49344Y6065D01*
G37*
G36*
G01X24295Y9511D02*
G01X22694Y9511D01*
G01X22671Y9510D01*
G01X22647Y9507D01*
G01X22624Y9501D01*
G01X22602Y9494D01*
G01X22580Y9484D01*
G01X22559Y9473D01*
G01X22540Y9459D01*
G01X22522Y9444D01*
G01X22505Y9427D01*
G01X22490Y9409D01*
G01X22476Y9389D01*
G01X22465Y9369D01*
G01X22455Y9347D01*
G01X22448Y9325D01*
G01X22442Y9301D01*
G01X22439Y9278D01*
G01X22438Y9254D01*
G01X22438Y7254D01*
G01X22439Y7231D01*
G01X22442Y7208D01*
G01X22448Y7184D01*
G01X22455Y7162D01*
G01X22465Y7140D01*
G01X22476Y7120D01*
G01X22490Y7100D01*
G01X22505Y7082D01*
G01X22522Y7065D01*
G01X22540Y7050D01*
G01X22559Y7036D01*
G01X22580Y7025D01*
G01X22602Y7015D01*
G01X22624Y7008D01*
G01X22647Y7002D01*
G01X22671Y6999D01*
G01X22694Y6998D01*
G01X24295Y6998D01*
G01X24318Y6999D01*
G01X24342Y7002D01*
G01X24365Y7008D01*
G01X24387Y7015D01*
G01X24409Y7025D01*
G01X24430Y7036D01*
G01X24449Y7050D01*
G01X24467Y7065D01*
G01X24484Y7082D01*
G01X24499Y7100D01*
G01X24513Y7120D01*
G01X24524Y7140D01*
G01X24534Y7162D01*
G01X24541Y7184D01*
G01X24547Y7208D01*
G01X24550Y7231D01*
G01X24551Y7254D01*
G01X24551Y7446D01*
G01X24552Y7461D01*
G01X24555Y7475D01*
G01X24560Y7488D01*
G01X24567Y7501D01*
G01X24576Y7513D01*
G01X24586Y7523D01*
G01X24598Y7532D01*
G01X24611Y7539D01*
G01X24624Y7544D01*
G01X24638Y7547D01*
G01X24653Y7548D01*
G01X27579Y7548D01*
G01X27596Y7547D01*
G01X27612Y7543D01*
G01X27627Y7536D01*
G01X27641Y7528D01*
G01X27653Y7516D01*
G01X27663Y7504D01*
G01X27693Y7462D01*
G01X27724Y7422D01*
G01X27757Y7383D01*
G01X27791Y7345D01*
G01X27827Y7309D01*
G01X27864Y7275D01*
G01X27903Y7242D01*
G01X27943Y7210D01*
G01X27984Y7180D01*
G01X28026Y7152D01*
G01X28070Y7125D01*
G01X28114Y7100D01*
G01X28160Y7077D01*
G01X28206Y7057D01*
G01X28253Y7037D01*
G01X28301Y7021D01*
G01X28350Y7005D01*
G01X28399Y6992D01*
G01X28449Y6980D01*
G01X28499Y6971D01*
G01X28549Y6964D01*
G01X28600Y6959D01*
G01X28651Y6956D01*
G01X28702Y6955D01*
G01X28752Y6956D01*
G01X28803Y6959D01*
G01X28853Y6964D01*
G01X28903Y6971D01*
G01X28953Y6980D01*
G01X29002Y6992D01*
G01X29051Y7005D01*
G01X29099Y7020D01*
G01X29147Y7037D01*
G01X29194Y7056D01*
G01X29240Y7076D01*
G01X29285Y7099D01*
G01X29330Y7123D01*
G01X29373Y7150D01*
G01X29415Y7178D01*
G01X29456Y7207D01*
G01X29496Y7238D01*
G01X29535Y7271D01*
G01X29572Y7305D01*
G01X29608Y7341D01*
G01X29642Y7378D01*
G01X29675Y7417D01*
G01X29706Y7456D01*
G01X29736Y7498D01*
G01X29764Y7540D01*
G01X29790Y7583D01*
G01X29814Y7628D01*
G01X29837Y7673D01*
G01X29858Y7719D01*
G01X29877Y7766D01*
G01X29909Y7862D01*
G01X29922Y7911D01*
G01X29933Y7960D01*
G01X29942Y8010D01*
G01X29949Y8060D01*
G01X29954Y8110D01*
G01X29957Y8161D01*
G01X29958Y8211D01*
G01X29957Y8262D01*
G01X29954Y8312D01*
G01X29949Y8363D01*
G01X29942Y8413D01*
G01X29933Y8463D01*
G01X29922Y8512D01*
G01X29909Y8561D01*
G01X29893Y8610D01*
G01X29877Y8657D01*
G01X29858Y8704D01*
G01X29837Y8750D01*
G01X29814Y8796D01*
G01X29790Y8840D01*
G01X29764Y8883D01*
G01X29736Y8925D01*
G01X29706Y8966D01*
G01X29675Y9006D01*
G01X29642Y9045D01*
G01X29608Y9082D01*
G01X29572Y9118D01*
G01X29535Y9152D01*
G01X29496Y9185D01*
G01X29456Y9216D01*
G01X29415Y9246D01*
G01X29373Y9274D01*
G01X29330Y9299D01*
G01X29285Y9324D01*
G01X29240Y9347D01*
G01X29194Y9368D01*
G01X29147Y9386D01*
G01X29099Y9404D01*
G01X29051Y9418D01*
G01X29002Y9432D01*
G01X28953Y9443D01*
G01X28903Y9452D01*
G01X28853Y9459D01*
G01X28803Y9464D01*
G01X28752Y9467D01*
G01X28702Y9468D01*
G01X28651Y9467D01*
G01X28599Y9464D01*
G01X28549Y9459D01*
G01X28498Y9451D01*
G01X28448Y9442D01*
G01X28398Y9431D01*
G01X28349Y9418D01*
G01X28300Y9402D01*
G01X28252Y9385D01*
G01X28205Y9366D01*
G01X28158Y9345D01*
G01X28113Y9322D01*
G01X28069Y9297D01*
G01X28025Y9271D01*
G01X27983Y9242D01*
G01X27941Y9212D01*
G01X27901Y9180D01*
G01X27863Y9147D01*
G01X27825Y9112D01*
G01X27790Y9076D01*
G01X27755Y9038D01*
G01X27722Y8999D01*
G01X27712Y8988D01*
G01X27700Y8978D01*
G01X27687Y8971D01*
G01X27673Y8966D01*
G01X27658Y8962D01*
G01X27643Y8961D01*
G01X24653Y8961D01*
G01X24638Y8962D01*
G01X24624Y8965D01*
G01X24611Y8970D01*
G01X24598Y8977D01*
G01X24586Y8986D01*
G01X24576Y8996D01*
G01X24567Y9008D01*
G01X24560Y9021D01*
G01X24555Y9034D01*
G01X24552Y9048D01*
G01X24551Y9063D01*
G01X24551Y9254D01*
G01X24550Y9278D01*
G01X24547Y9301D01*
G01X24541Y9325D01*
G01X24534Y9347D01*
G01X24524Y9369D01*
G01X24513Y9389D01*
G01X24499Y9409D01*
G01X24484Y9427D01*
G01X24467Y9444D01*
G01X24449Y9459D01*
G01X24430Y9473D01*
G01X24409Y9484D01*
G01X24387Y9494D01*
G01X24365Y9501D01*
G01X24342Y9507D01*
G01X24318Y9510D01*
G01X24295Y9511D01*
G37*
G36*
G01X20882Y13320D02*
G01X20828Y13321D01*
G01X20773Y13320D01*
G01X20719Y13316D01*
G01X20664Y13311D01*
G01X20611Y13302D01*
G01X20557Y13292D01*
G01X20504Y13279D01*
G01X20452Y13263D01*
G01X20400Y13246D01*
G01X20382Y13240D01*
G01X20335Y13221D01*
G01X20289Y13200D01*
G01X20244Y13177D01*
G01X20200Y13153D01*
G01X20156Y13127D01*
G01X20114Y13099D01*
G01X20073Y13069D01*
G01X20033Y13038D01*
G01X19994Y13005D01*
G01X19957Y12971D01*
G01X19921Y12935D01*
G01X19887Y12898D01*
G01X19854Y12860D01*
G01X19823Y12819D01*
G01X19794Y12778D01*
G01X19766Y12736D01*
G01X19739Y12693D01*
G01X19715Y12649D01*
G01X19692Y12603D01*
G01X19672Y12557D01*
G01X19652Y12510D01*
G01X19620Y12414D01*
G01X19607Y12365D01*
G01X19597Y12316D01*
G01X19587Y12266D01*
G01X19580Y12216D01*
G01X19575Y12166D01*
G01X19572Y12115D01*
G01X19571Y12065D01*
G01X19572Y12012D01*
G01X19575Y11959D01*
G01X19581Y11908D01*
G01X19588Y11855D01*
G01X19598Y11804D01*
G01X19610Y11753D01*
G01X19625Y11702D01*
G01X19641Y11652D01*
G01X19659Y11603D01*
G01X19679Y11554D01*
G01X19702Y11507D01*
G01X19726Y11460D01*
G01X19752Y11415D01*
G01X19780Y11370D01*
G01X19810Y11327D01*
G01X19842Y11285D01*
G01X19876Y11245D01*
G01X19911Y11205D01*
G01X19947Y11168D01*
G01X19985Y11132D01*
G01X20025Y11097D01*
G01X20066Y11065D01*
G01X20109Y11034D01*
G01X20152Y11005D01*
G01X20197Y10977D01*
G01X20210Y10969D01*
G01X20221Y10959D01*
G01X20231Y10947D01*
G01X20238Y10934D01*
G01X20243Y10919D01*
G01X20247Y10905D01*
G01X20248Y10889D01*
G01X20248Y9346D01*
G01X20247Y9330D01*
G01X20243Y9315D01*
G01X20237Y9300D01*
G01X20229Y9287D01*
G01X20219Y9275D01*
G01X20207Y9264D01*
G01X20167Y9233D01*
G01X20127Y9200D01*
G01X20090Y9166D01*
G01X20053Y9130D01*
G01X20019Y9093D01*
G01X19985Y9054D01*
G01X19954Y9014D01*
G01X19924Y8973D01*
G01X19895Y8931D01*
G01X19869Y8887D01*
G01X19844Y8843D01*
G01X19821Y8797D01*
G01X19800Y8751D01*
G01X19781Y8704D01*
G01X19764Y8655D01*
G01X19749Y8607D01*
G01X19735Y8557D01*
G01X19724Y8508D01*
G01X19714Y8458D01*
G01X19707Y8407D01*
G01X19702Y8357D01*
G01X19699Y8305D01*
G01X19698Y8255D01*
G01X19699Y8204D01*
G01X19702Y8153D01*
G01X19707Y8103D01*
G01X19714Y8053D01*
G01X19723Y8003D01*
G01X19734Y7954D01*
G01X19747Y7905D01*
G01X19779Y7809D01*
G01X19798Y7762D01*
G01X19819Y7716D01*
G01X19842Y7671D01*
G01X19866Y7626D01*
G01X19892Y7583D01*
G01X19920Y7541D01*
G01X19950Y7500D01*
G01X19981Y7460D01*
G01X20014Y7421D01*
G01X20048Y7384D01*
G01X20084Y7348D01*
G01X20121Y7314D01*
G01X20160Y7281D01*
G01X20200Y7250D01*
G01X20241Y7220D01*
G01X20283Y7192D01*
G01X20326Y7166D01*
G01X20371Y7142D01*
G01X20416Y7119D01*
G01X20462Y7098D01*
G01X20509Y7079D01*
G01X20605Y7047D01*
G01X20654Y7034D01*
G01X20703Y7023D01*
G01X20753Y7014D01*
G01X20803Y7007D01*
G01X20853Y7002D01*
G01X20904Y6999D01*
G01X20955Y6998D01*
G01X21005Y6999D01*
G01X21056Y7002D01*
G01X21106Y7007D01*
G01X21156Y7014D01*
G01X21206Y7023D01*
G01X21255Y7034D01*
G01X21304Y7047D01*
G01X21400Y7079D01*
G01X21447Y7098D01*
G01X21493Y7119D01*
G01X21538Y7142D01*
G01X21583Y7166D01*
G01X21626Y7192D01*
G01X21668Y7220D01*
G01X21709Y7250D01*
G01X21749Y7281D01*
G01X21788Y7314D01*
G01X21825Y7348D01*
G01X21861Y7384D01*
G01X21895Y7421D01*
G01X21928Y7460D01*
G01X21959Y7500D01*
G01X21989Y7541D01*
G01X22017Y7583D01*
G01X22043Y7626D01*
G01X22067Y7671D01*
G01X22090Y7716D01*
G01X22111Y7762D01*
G01X22130Y7809D01*
G01X22162Y7905D01*
G01X22175Y7954D01*
G01X22186Y8003D01*
G01X22195Y8053D01*
G01X22202Y8103D01*
G01X22207Y8153D01*
G01X22210Y8204D01*
G01X22211Y8255D01*
G01X22210Y8305D01*
G01X22207Y8357D01*
G01X22202Y8407D01*
G01X22195Y8458D01*
G01X22185Y8508D01*
G01X22174Y8557D01*
G01X22160Y8607D01*
G01X22145Y8655D01*
G01X22128Y8704D01*
G01X22109Y8751D01*
G01X22088Y8797D01*
G01X22065Y8843D01*
G01X22040Y8887D01*
G01X22014Y8931D01*
G01X21985Y8973D01*
G01X21955Y9014D01*
G01X21924Y9054D01*
G01X21890Y9093D01*
G01X21856Y9130D01*
G01X21819Y9166D01*
G01X21782Y9200D01*
G01X21742Y9233D01*
G01X21702Y9264D01*
G01X21690Y9275D01*
G01X21680Y9287D01*
G01X21672Y9300D01*
G01X21666Y9315D01*
G01X21662Y9330D01*
G01X21661Y9346D01*
G01X21661Y11079D01*
G01X21662Y11096D01*
G01X21666Y11112D01*
G01X21673Y11127D01*
G01X21681Y11141D01*
G01X21729Y11189D01*
G01X21764Y11226D01*
G01X21797Y11265D01*
G01X21829Y11305D01*
G01X21859Y11346D01*
G01X21887Y11389D01*
G01X21913Y11432D01*
G01X21938Y11477D01*
G01X21961Y11522D01*
G01X21982Y11569D01*
G01X22001Y11616D01*
G01X22018Y11664D01*
G01X22033Y11712D01*
G01X22047Y11762D01*
G01X22058Y11812D01*
G01X22068Y11861D01*
G01X22075Y11912D01*
G01X22080Y11963D01*
G01X22083Y12014D01*
G01X22084Y12065D01*
G01X22083Y12115D01*
G01X22080Y12166D01*
G01X22075Y12216D01*
G01X22068Y12266D01*
G01X22058Y12316D01*
G01X22048Y12365D01*
G01X22035Y12414D01*
G01X22003Y12510D01*
G01X21983Y12557D01*
G01X21963Y12603D01*
G01X21940Y12649D01*
G01X21916Y12693D01*
G01X21889Y12736D01*
G01X21861Y12778D01*
G01X21832Y12819D01*
G01X21801Y12860D01*
G01X21768Y12898D01*
G01X21734Y12935D01*
G01X21698Y12971D01*
G01X21661Y13005D01*
G01X21622Y13038D01*
G01X21582Y13069D01*
G01X21541Y13099D01*
G01X21499Y13127D01*
G01X21455Y13153D01*
G01X21411Y13177D01*
G01X21366Y13200D01*
G01X21320Y13221D01*
G01X21273Y13240D01*
G01X21255Y13246D01*
G01X21203Y13263D01*
G01X21151Y13279D01*
G01X21098Y13292D01*
G01X21044Y13302D01*
G01X20991Y13311D01*
G01X20936Y13316D01*
G01X20882Y13320D01*
G37*
G36*
G01X3624Y54325D02*
G01X3556Y54326D01*
G01X3487Y54325D01*
G01X3419Y54322D01*
G01X3351Y54317D01*
G01X3284Y54310D01*
G01X3216Y54300D01*
G01X3149Y54289D01*
G01X3082Y54276D01*
G01X3015Y54261D01*
G01X2949Y54243D01*
G01X2884Y54224D01*
G01X2819Y54203D01*
G01X2755Y54179D01*
G01X2692Y54154D01*
G01X2629Y54127D01*
G01X2567Y54098D01*
G01X2507Y54067D01*
G01X2447Y54035D01*
G01X2388Y54000D01*
G01X2330Y53964D01*
G01X2274Y53927D01*
G01X2218Y53887D01*
G01X2164Y53846D01*
G01X2111Y53803D01*
G01X2059Y53759D01*
G01X2009Y53712D01*
G01X1960Y53665D01*
G01X1913Y53616D01*
G01X1866Y53566D01*
G01X1822Y53514D01*
G01X1779Y53461D01*
G01X1738Y53407D01*
G01X1698Y53351D01*
G01X1661Y53295D01*
G01X1625Y53237D01*
G01X1590Y53178D01*
G01X1558Y53118D01*
G01X1527Y53058D01*
G01X1498Y52996D01*
G01X1471Y52933D01*
G01X1446Y52870D01*
G01X1422Y52806D01*
G01X1401Y52741D01*
G01X1382Y52676D01*
G01X1364Y52610D01*
G01X1349Y52543D01*
G01X1336Y52476D01*
G01X1325Y52409D01*
G01X1315Y52341D01*
G01X1308Y52274D01*
G01X1303Y52206D01*
G01X1300Y52138D01*
G01X1299Y52070D01*
G01X1300Y52001D01*
G01X1303Y51933D01*
G01X1308Y51865D01*
G01X1315Y51798D01*
G01X1325Y51730D01*
G01X1336Y51663D01*
G01X1349Y51596D01*
G01X1364Y51529D01*
G01X1382Y51463D01*
G01X1401Y51398D01*
G01X1422Y51333D01*
G01X1446Y51269D01*
G01X1471Y51206D01*
G01X1498Y51143D01*
G01X1527Y51081D01*
G01X1558Y51021D01*
G01X1590Y50961D01*
G01X1625Y50902D01*
G01X1661Y50844D01*
G01X1698Y50788D01*
G01X1738Y50732D01*
G01X1779Y50678D01*
G01X1822Y50625D01*
G01X1866Y50573D01*
G01X1913Y50523D01*
G01X1960Y50474D01*
G01X2009Y50427D01*
G01X2059Y50380D01*
G01X2111Y50336D01*
G01X2164Y50293D01*
G01X2218Y50252D01*
G01X2274Y50212D01*
G01X2330Y50175D01*
G01X2388Y50139D01*
G01X2447Y50104D01*
G01X2507Y50072D01*
G01X2567Y50041D01*
G01X2629Y50012D01*
G01X2692Y49985D01*
G01X2755Y49960D01*
G01X2819Y49936D01*
G01X2884Y49915D01*
G01X2949Y49896D01*
G01X3015Y49878D01*
G01X3082Y49863D01*
G01X3149Y49850D01*
G01X3216Y49839D01*
G01X3284Y49829D01*
G01X3351Y49822D01*
G01X3419Y49817D01*
G01X3487Y49814D01*
G01X3556Y49813D01*
G01X3624Y49814D01*
G01X3692Y49817D01*
G01X3760Y49822D01*
G01X3827Y49829D01*
G01X3895Y49839D01*
G01X3962Y49850D01*
G01X4029Y49863D01*
G01X4096Y49878D01*
G01X4162Y49896D01*
G01X4227Y49915D01*
G01X4292Y49936D01*
G01X4356Y49960D01*
G01X4419Y49985D01*
G01X4482Y50012D01*
G01X4544Y50041D01*
G01X4604Y50072D01*
G01X4664Y50104D01*
G01X4723Y50139D01*
G01X4781Y50175D01*
G01X4837Y50212D01*
G01X4893Y50252D01*
G01X4947Y50293D01*
G01X5000Y50336D01*
G01X5052Y50380D01*
G01X5102Y50427D01*
G01X5151Y50474D01*
G01X5198Y50523D01*
G01X5245Y50573D01*
G01X5289Y50625D01*
G01X5332Y50678D01*
G01X5373Y50732D01*
G01X5413Y50788D01*
G01X5450Y50844D01*
G01X5486Y50902D01*
G01X5521Y50961D01*
G01X5553Y51021D01*
G01X5584Y51081D01*
G01X5613Y51143D01*
G01X5640Y51206D01*
G01X5665Y51269D01*
G01X5689Y51333D01*
G01X5710Y51398D01*
G01X5729Y51463D01*
G01X5747Y51529D01*
G01X5762Y51596D01*
G01X5775Y51663D01*
G01X5786Y51730D01*
G01X5796Y51798D01*
G01X5803Y51865D01*
G01X5808Y51933D01*
G01X5811Y52001D01*
G01X5812Y52070D01*
G01X5811Y52138D01*
G01X5808Y52206D01*
G01X5803Y52274D01*
G01X5796Y52341D01*
G01X5786Y52409D01*
G01X5775Y52476D01*
G01X5762Y52543D01*
G01X5747Y52610D01*
G01X5729Y52676D01*
G01X5710Y52741D01*
G01X5689Y52806D01*
G01X5665Y52870D01*
G01X5640Y52933D01*
G01X5613Y52996D01*
G01X5584Y53058D01*
G01X5553Y53118D01*
G01X5521Y53178D01*
G01X5486Y53237D01*
G01X5450Y53295D01*
G01X5413Y53351D01*
G01X5373Y53407D01*
G01X5332Y53461D01*
G01X5289Y53514D01*
G01X5245Y53566D01*
G01X5198Y53616D01*
G01X5151Y53665D01*
G01X5102Y53712D01*
G01X5052Y53759D01*
G01X5000Y53803D01*
G01X4947Y53846D01*
G01X4893Y53887D01*
G01X4837Y53927D01*
G01X4781Y53964D01*
G01X4723Y54000D01*
G01X4664Y54035D01*
G01X4604Y54067D01*
G01X4544Y54098D01*
G01X4482Y54127D01*
G01X4419Y54154D01*
G01X4356Y54179D01*
G01X4292Y54203D01*
G01X4227Y54224D01*
G01X4162Y54243D01*
G01X4096Y54261D01*
G01X4029Y54276D01*
G01X3962Y54289D01*
G01X3895Y54300D01*
G01X3827Y54310D01*
G01X3760Y54317D01*
G01X3692Y54322D01*
G01X3624Y54325D01*
G37*
G36*
G01X8686Y48500D02*
G01X8356Y48500D01*
G01X8332Y48499D01*
G01X8309Y48496D01*
G01X8286Y48490D01*
G01X8264Y48483D01*
G01X8242Y48473D01*
G01X8221Y48462D01*
G01X8202Y48448D01*
G01X8183Y48433D01*
G01X8167Y48416D01*
G01X8151Y48398D01*
G01X8138Y48378D01*
G01X8126Y48358D01*
G01X8117Y48336D01*
G01X8109Y48314D01*
G01X8104Y48290D01*
G01X8101Y48267D01*
G01X8100Y48243D01*
G01X8100Y47807D01*
G01X8686Y47807D01*
G01X8686Y48500D01*
G37*
G36*
G01X21951Y14041D02*
G01X21391Y14041D01*
G01X21391Y13481D01*
G01X21439Y13507D01*
G01X21485Y13534D01*
G01X21530Y13563D01*
G01X21574Y13594D01*
G01X21616Y13627D01*
G01X21657Y13661D01*
G01X21697Y13697D01*
G01X21735Y13735D01*
G01X21771Y13775D01*
G01X21805Y13816D01*
G01X21838Y13858D01*
G01X21869Y13902D01*
G01X21898Y13947D01*
G01X21925Y13993D01*
G01X21951Y14041D01*
G37*
G36*
G01X20264Y14041D02*
G01X19704Y14041D01*
G01X19730Y13993D01*
G01X19757Y13947D01*
G01X19786Y13902D01*
G01X19817Y13858D01*
G01X19850Y13816D01*
G01X19884Y13775D01*
G01X19920Y13735D01*
G01X19958Y13697D01*
G01X19998Y13661D01*
G01X20039Y13627D01*
G01X20081Y13594D01*
G01X20125Y13563D01*
G01X20170Y13534D01*
G01X20216Y13507D01*
G01X20264Y13481D01*
G01X20264Y14041D01*
G37*
G36*
G01X21439Y15702D02*
G01X21391Y15728D01*
G01X21391Y15168D01*
G01X21951Y15168D01*
G01X21925Y15216D01*
G01X21898Y15262D01*
G01X21869Y15307D01*
G01X21838Y15351D01*
G01X21805Y15393D01*
G01X21771Y15434D01*
G01X21735Y15474D01*
G01X21697Y15512D01*
G01X21657Y15548D01*
G01X21616Y15582D01*
G01X21574Y15615D01*
G01X21530Y15646D01*
G01X21485Y15675D01*
G01X21439Y15702D01*
G37*
G36*
G01X20264Y15168D02*
G01X20264Y15728D01*
G01X20216Y15702D01*
G01X20170Y15675D01*
G01X20125Y15646D01*
G01X20081Y15615D01*
G01X20039Y15582D01*
G01X19998Y15548D01*
G01X19958Y15512D01*
G01X19920Y15474D01*
G01X19884Y15434D01*
G01X19850Y15393D01*
G01X19817Y15351D01*
G01X19786Y15307D01*
G01X19757Y15262D01*
G01X19730Y15216D01*
G01X19704Y15168D01*
G01X20264Y15168D01*
G37*
G36*
G01X24515Y44871D02*
G01X24464Y44872D01*
G01X24413Y44871D01*
G01X24362Y44868D01*
G01X24312Y44863D01*
G01X24262Y44856D01*
G01X24212Y44847D01*
G01X24163Y44836D01*
G01X24065Y44808D01*
G01X23971Y44772D01*
G01X23925Y44751D01*
G01X23880Y44728D01*
G01X23835Y44704D01*
G01X23792Y44678D01*
G01X23750Y44650D01*
G01X23709Y44620D01*
G01X23669Y44589D01*
G01X23630Y44556D01*
G01X23593Y44522D01*
G01X23557Y44486D01*
G01X23523Y44449D01*
G01X23490Y44410D01*
G01X23459Y44370D01*
G01X23429Y44330D01*
G01X23375Y44244D01*
G01X23351Y44200D01*
G01X23328Y44154D01*
G01X23308Y44108D01*
G01X23289Y44061D01*
G01X23271Y44014D01*
G01X23257Y43965D01*
G01X23244Y43916D01*
G01X23232Y43867D01*
G01X23223Y43817D01*
G01X23216Y43767D01*
G01X23211Y43717D01*
G01X23208Y43666D01*
G01X23207Y43615D01*
G01X23208Y43565D01*
G01X23211Y43514D01*
G01X23216Y43464D01*
G01X23223Y43414D01*
G01X23232Y43364D01*
G01X23244Y43315D01*
G01X23257Y43266D01*
G01X23271Y43218D01*
G01X23289Y43170D01*
G01X23308Y43123D01*
G01X23328Y43077D01*
G01X23351Y43032D01*
G01X23375Y42987D01*
G01X23402Y42944D01*
G01X23429Y42902D01*
G01X23459Y42861D01*
G01X23490Y42821D01*
G01X23523Y42782D01*
G01X23557Y42745D01*
G01X23593Y42710D01*
G01X23630Y42675D01*
G01X23669Y42643D01*
G01X23709Y42611D01*
G01X23750Y42582D01*
G01X23792Y42554D01*
G01X23835Y42527D01*
G01X23880Y42503D01*
G01X23925Y42480D01*
G01X23971Y42460D01*
G01X24018Y42441D01*
G01X24065Y42424D01*
G01X24114Y42409D01*
G01X24163Y42396D01*
G01X24212Y42384D01*
G01X24262Y42375D01*
G01X24312Y42368D01*
G01X24362Y42363D01*
G01X24413Y42360D01*
G01X24464Y42359D01*
G01X24515Y42360D01*
G01X24565Y42363D01*
G01X24616Y42368D01*
G01X24667Y42376D01*
G01X24717Y42385D01*
G01X24767Y42396D01*
G01X24816Y42409D01*
G01X24865Y42425D01*
G01X24913Y42442D01*
G01X24960Y42461D01*
G01X25052Y42505D01*
G01X25097Y42530D01*
G01X25140Y42557D01*
G01X25183Y42585D01*
G01X25224Y42615D01*
G01X25264Y42647D01*
G01X25302Y42680D01*
G01X25340Y42715D01*
G01X25376Y42751D01*
G01X25410Y42789D01*
G01X25443Y42828D01*
G01X25474Y42869D01*
G01X25484Y42881D01*
G01X25497Y42891D01*
G01X25510Y42899D01*
G01X25524Y42905D01*
G01X25540Y42909D01*
G01X25555Y42910D01*
G01X33372Y42910D01*
G01X33387Y42909D01*
G01X33403Y42905D01*
G01X33417Y42899D01*
G01X33430Y42891D01*
G01X33443Y42881D01*
G01X33453Y42869D01*
G01X33484Y42828D01*
G01X33517Y42789D01*
G01X33551Y42751D01*
G01X33587Y42715D01*
G01X33625Y42680D01*
G01X33663Y42647D01*
G01X33703Y42615D01*
G01X33744Y42585D01*
G01X33787Y42557D01*
G01X33830Y42530D01*
G01X33875Y42505D01*
G01X33967Y42461D01*
G01X34014Y42442D01*
G01X34062Y42425D01*
G01X34111Y42409D01*
G01X34160Y42396D01*
G01X34210Y42385D01*
G01X34260Y42376D01*
G01X34311Y42368D01*
G01X34362Y42363D01*
G01X34412Y42360D01*
G01X34464Y42359D01*
G01X34515Y42360D01*
G01X34565Y42363D01*
G01X34616Y42368D01*
G01X34666Y42376D01*
G01X34717Y42385D01*
G01X34767Y42396D01*
G01X34816Y42409D01*
G01X34865Y42425D01*
G01X34912Y42442D01*
G01X34960Y42461D01*
G01X35006Y42482D01*
G01X35052Y42505D01*
G01X35096Y42530D01*
G01X35140Y42557D01*
G01X35182Y42585D01*
G01X35223Y42615D01*
G01X35263Y42647D01*
G01X35302Y42680D01*
G01X35339Y42715D01*
G01X35375Y42751D01*
G01X35410Y42788D01*
G01X35442Y42827D01*
G01X35473Y42868D01*
G01X35484Y42880D01*
G01X35496Y42890D01*
G01X35509Y42898D01*
G01X35524Y42904D01*
G01X35539Y42908D01*
G01X35555Y42909D01*
G01X41356Y42909D01*
G01X41371Y42908D01*
G01X41385Y42905D01*
G01X41399Y42900D01*
G01X41412Y42893D01*
G01X41423Y42884D01*
G01X41434Y42874D01*
G01X43337Y40660D01*
G01X43346Y40649D01*
G01X43353Y40636D01*
G01X43358Y40622D01*
G01X43361Y40608D01*
G01X43362Y40594D01*
G01X43362Y31779D01*
G01X43360Y31762D01*
G01X43356Y31745D01*
G01X43349Y31730D01*
G01X43340Y31715D01*
G01X42744Y30970D01*
G01X42733Y30959D01*
G01X42721Y30949D01*
G01X42708Y30942D01*
G01X42694Y30937D01*
G01X42679Y30933D01*
G01X42664Y30932D01*
G01X42502Y30932D01*
G01X42485Y30934D01*
G01X42468Y30938D01*
G01X42453Y30945D01*
G01X42439Y30954D01*
G01X42394Y30988D01*
G01X42348Y31020D01*
G01X42301Y31049D01*
G01X42253Y31077D01*
G01X42203Y31102D01*
G01X42152Y31126D01*
G01X42101Y31147D01*
G01X42087Y31153D01*
G01X42074Y31162D01*
G01X42063Y31172D01*
G01X42053Y31184D01*
G01X42046Y31197D01*
G01X42040Y31211D01*
G01X42037Y31226D01*
G01X42035Y31242D01*
G01X42037Y31257D01*
G01X42040Y31272D01*
G01X42046Y31286D01*
G01X42053Y31299D01*
G01X42063Y31311D01*
G01X42074Y31321D01*
G01X42087Y31330D01*
G01X42101Y31336D01*
G01X42148Y31355D01*
G01X42194Y31376D01*
G01X42239Y31399D01*
G01X42283Y31423D01*
G01X42327Y31449D01*
G01X42369Y31477D01*
G01X42410Y31507D01*
G01X42450Y31538D01*
G01X42489Y31571D01*
G01X42526Y31605D01*
G01X42562Y31641D01*
G01X42596Y31678D01*
G01X42629Y31716D01*
G01X42660Y31757D01*
G01X42689Y31798D01*
G01X42717Y31840D01*
G01X42744Y31883D01*
G01X42768Y31927D01*
G01X42791Y31973D01*
G01X42811Y32019D01*
G01X42831Y32066D01*
G01X42863Y32162D01*
G01X42876Y32211D01*
G01X42886Y32260D01*
G01X42896Y32310D01*
G01X42903Y32360D01*
G01X42908Y32410D01*
G01X42911Y32461D01*
G01X42912Y32512D01*
G01X42911Y32562D01*
G01X42908Y32613D01*
G01X42903Y32663D01*
G01X42896Y32713D01*
G01X42886Y32763D01*
G01X42876Y32812D01*
G01X42863Y32861D01*
G01X42831Y32957D01*
G01X42811Y33004D01*
G01X42791Y33050D01*
G01X42768Y33096D01*
G01X42744Y33140D01*
G01X42717Y33183D01*
G01X42689Y33225D01*
G01X42660Y33266D01*
G01X42629Y33307D01*
G01X42596Y33345D01*
G01X42562Y33382D01*
G01X42526Y33418D01*
G01X42489Y33452D01*
G01X42450Y33485D01*
G01X42410Y33516D01*
G01X42369Y33546D01*
G01X42327Y33574D01*
G01X42283Y33600D01*
G01X42239Y33624D01*
G01X42194Y33647D01*
G01X42148Y33668D01*
G01X42101Y33687D01*
G01X42087Y33693D01*
G01X42074Y33702D01*
G01X42063Y33712D01*
G01X42053Y33724D01*
G01X42046Y33737D01*
G01X42040Y33751D01*
G01X42037Y33766D01*
G01X42035Y33782D01*
G01X42037Y33797D01*
G01X42040Y33812D01*
G01X42046Y33826D01*
G01X42053Y33839D01*
G01X42063Y33851D01*
G01X42074Y33861D01*
G01X42087Y33870D01*
G01X42101Y33876D01*
G01X42148Y33895D01*
G01X42194Y33916D01*
G01X42239Y33939D01*
G01X42283Y33963D01*
G01X42327Y33989D01*
G01X42369Y34017D01*
G01X42410Y34047D01*
G01X42450Y34078D01*
G01X42489Y34111D01*
G01X42526Y34145D01*
G01X42562Y34181D01*
G01X42596Y34218D01*
G01X42629Y34256D01*
G01X42660Y34297D01*
G01X42689Y34338D01*
G01X42717Y34380D01*
G01X42744Y34423D01*
G01X42768Y34467D01*
G01X42791Y34513D01*
G01X42811Y34559D01*
G01X42831Y34606D01*
G01X42863Y34702D01*
G01X42876Y34751D01*
G01X42886Y34800D01*
G01X42896Y34850D01*
G01X42903Y34900D01*
G01X42908Y34950D01*
G01X42911Y35001D01*
G01X42912Y35052D01*
G01X42911Y35102D01*
G01X42908Y35153D01*
G01X42903Y35203D01*
G01X42896Y35253D01*
G01X42887Y35303D01*
G01X42876Y35352D01*
G01X42863Y35401D01*
G01X42831Y35497D01*
G01X42812Y35544D01*
G01X42791Y35590D01*
G01X42768Y35635D01*
G01X42744Y35680D01*
G01X42718Y35723D01*
G01X42690Y35765D01*
G01X42660Y35806D01*
G01X42629Y35846D01*
G01X42596Y35885D01*
G01X42562Y35922D01*
G01X42526Y35958D01*
G01X42489Y35992D01*
G01X42450Y36025D01*
G01X42410Y36056D01*
G01X42369Y36086D01*
G01X42327Y36114D01*
G01X42284Y36140D01*
G01X42239Y36164D01*
G01X42194Y36187D01*
G01X42148Y36208D01*
G01X42101Y36227D01*
G01X42005Y36259D01*
G01X41956Y36272D01*
G01X41907Y36283D01*
G01X41857Y36292D01*
G01X41807Y36299D01*
G01X41757Y36304D01*
G01X41706Y36307D01*
G01X41656Y36308D01*
G01X41605Y36307D01*
G01X41553Y36304D01*
G01X41503Y36299D01*
G01X41452Y36292D01*
G01X41402Y36282D01*
G01X41353Y36271D01*
G01X41303Y36257D01*
G01X41255Y36242D01*
G01X41206Y36225D01*
G01X41159Y36206D01*
G01X41113Y36185D01*
G01X41067Y36162D01*
G01X41023Y36137D01*
G01X40979Y36111D01*
G01X40937Y36082D01*
G01X40896Y36052D01*
G01X40856Y36021D01*
G01X40817Y35987D01*
G01X40780Y35953D01*
G01X40744Y35916D01*
G01X40710Y35879D01*
G01X40677Y35839D01*
G01X40646Y35799D01*
G01X40635Y35787D01*
G01X40623Y35777D01*
G01X40610Y35769D01*
G01X40595Y35763D01*
G01X40580Y35759D01*
G01X40564Y35758D01*
G01X30099Y35758D01*
G01X30059Y35757D01*
G01X30019Y35754D01*
G01X29980Y35748D01*
G01X29942Y35740D01*
G01X29903Y35730D01*
G01X29865Y35719D01*
G01X29828Y35704D01*
G01X29792Y35688D01*
G01X29757Y35670D01*
G01X29723Y35650D01*
G01X29690Y35628D01*
G01X29658Y35604D01*
G01X29628Y35578D01*
G01X29599Y35551D01*
G01X22215Y28168D01*
G01X22204Y28157D01*
G01X22190Y28149D01*
G01X22175Y28143D01*
G01X22159Y28139D01*
G01X22144Y28138D01*
G01X22079Y28138D01*
G01X22063Y28139D01*
G01X22048Y28143D01*
G01X22033Y28149D01*
G01X22020Y28157D01*
G01X22008Y28167D01*
G01X21997Y28179D01*
G01X21966Y28219D01*
G01X21934Y28259D01*
G01X21899Y28296D01*
G01X21863Y28333D01*
G01X21826Y28367D01*
G01X21788Y28401D01*
G01X21747Y28432D01*
G01X21706Y28462D01*
G01X21664Y28491D01*
G01X21620Y28517D01*
G01X21576Y28542D01*
G01X21530Y28565D01*
G01X21484Y28586D01*
G01X21437Y28605D01*
G01X21389Y28622D01*
G01X21340Y28637D01*
G01X21291Y28651D01*
G01X21241Y28662D01*
G01X21191Y28672D01*
G01X21140Y28679D01*
G01X21090Y28684D01*
G01X21039Y28687D01*
G01X20988Y28688D01*
G01X20937Y28687D01*
G01X20886Y28684D01*
G01X20836Y28679D01*
G01X20786Y28672D01*
G01X20737Y28663D01*
G01X20687Y28652D01*
G01X20638Y28639D01*
G01X20542Y28607D01*
G01X20495Y28588D01*
G01X20449Y28567D01*
G01X20404Y28544D01*
G01X20360Y28520D01*
G01X20316Y28494D01*
G01X20274Y28466D01*
G01X20233Y28436D01*
G01X20193Y28405D01*
G01X20154Y28372D01*
G01X20117Y28338D01*
G01X20082Y28302D01*
G01X20047Y28265D01*
G01X20015Y28226D01*
G01X19983Y28186D01*
G01X19954Y28145D01*
G01X19926Y28103D01*
G01X19899Y28060D01*
G01X19875Y28015D01*
G01X19853Y27970D01*
G01X19832Y27924D01*
G01X19813Y27877D01*
G01X19796Y27829D01*
G01X19781Y27781D01*
G01X19768Y27732D01*
G01X19757Y27683D01*
G01X19747Y27633D01*
G01X19740Y27583D01*
G01X19735Y27533D01*
G01X19732Y27482D01*
G01X19731Y27432D01*
G01X19732Y27381D01*
G01X19735Y27330D01*
G01X19740Y27280D01*
G01X19747Y27230D01*
G01X19757Y27180D01*
G01X19768Y27131D01*
G01X19781Y27082D01*
G01X19796Y27034D01*
G01X19813Y26986D01*
G01X19832Y26939D01*
G01X19853Y26893D01*
G01X19875Y26847D01*
G01X19900Y26803D01*
G01X19926Y26760D01*
G01X19954Y26718D01*
G01X19983Y26677D01*
G01X20015Y26636D01*
G01X20047Y26598D01*
G01X20082Y26561D01*
G01X20117Y26525D01*
G01X20155Y26491D01*
G01X20193Y26458D01*
G01X20233Y26427D01*
G01X20274Y26397D01*
G01X20316Y26369D01*
G01X20360Y26343D01*
G01X20404Y26319D01*
G01X20450Y26296D01*
G01X20496Y26275D01*
G01X20543Y26256D01*
G01X20556Y26250D01*
G01X20569Y26241D01*
G01X20581Y26231D01*
G01X20590Y26219D01*
G01X20598Y26206D01*
G01X20603Y26192D01*
G01X20607Y26177D01*
G01X20608Y26162D01*
G01X20607Y26146D01*
G01X20603Y26131D01*
G01X20598Y26117D01*
G01X20590Y26104D01*
G01X20581Y26092D01*
G01X20569Y26082D01*
G01X20556Y26073D01*
G01X20543Y26067D01*
G01X20496Y26048D01*
G01X20450Y26027D01*
G01X20404Y26004D01*
G01X20360Y25980D01*
G01X20316Y25954D01*
G01X20274Y25926D01*
G01X20233Y25896D01*
G01X20193Y25865D01*
G01X20155Y25832D01*
G01X20117Y25798D01*
G01X20082Y25762D01*
G01X20047Y25725D01*
G01X20015Y25687D01*
G01X19983Y25646D01*
G01X19954Y25605D01*
G01X19926Y25563D01*
G01X19900Y25520D01*
G01X19875Y25476D01*
G01X19853Y25430D01*
G01X19832Y25384D01*
G01X19813Y25337D01*
G01X19796Y25289D01*
G01X19781Y25241D01*
G01X19768Y25192D01*
G01X19757Y25143D01*
G01X19747Y25093D01*
G01X19740Y25043D01*
G01X19735Y24993D01*
G01X19732Y24942D01*
G01X19731Y24892D01*
G01X19732Y24841D01*
G01X19735Y24790D01*
G01X19740Y24740D01*
G01X19747Y24690D01*
G01X19757Y24640D01*
G01X19768Y24591D01*
G01X19781Y24542D01*
G01X19796Y24494D01*
G01X19813Y24446D01*
G01X19832Y24399D01*
G01X19853Y24353D01*
G01X19875Y24307D01*
G01X19900Y24263D01*
G01X19926Y24220D01*
G01X19954Y24178D01*
G01X19983Y24137D01*
G01X20015Y24096D01*
G01X20047Y24058D01*
G01X20082Y24021D01*
G01X20117Y23985D01*
G01X20155Y23951D01*
G01X20193Y23918D01*
G01X20233Y23887D01*
G01X20274Y23857D01*
G01X20316Y23829D01*
G01X20360Y23803D01*
G01X20404Y23779D01*
G01X20450Y23756D01*
G01X20496Y23735D01*
G01X20543Y23716D01*
G01X20551Y23713D01*
G01X20612Y23693D01*
G01X20664Y23677D01*
G01X20717Y23664D01*
G01X20771Y23654D01*
G01X20825Y23645D01*
G01X20879Y23640D01*
G01X20933Y23636D01*
G01X20988Y23635D01*
G01X21042Y23636D01*
G01X21097Y23640D01*
G01X21151Y23645D01*
G01X21205Y23654D01*
G01X21258Y23664D01*
G01X21311Y23677D01*
G01X21363Y23693D01*
G01X21424Y23713D01*
G01X21433Y23716D01*
G01X21481Y23736D01*
G01X21528Y23757D01*
G01X21573Y23779D01*
G01X21618Y23804D01*
G01X21662Y23831D01*
G01X21705Y23859D01*
G01X21746Y23890D01*
G01X21786Y23921D01*
G01X21825Y23955D01*
G01X21863Y23990D01*
G01X21899Y24026D01*
G01X21933Y24064D01*
G01X21966Y24103D01*
G01X21997Y24144D01*
G01X22008Y24156D01*
G01X22020Y24166D01*
G01X22033Y24174D01*
G01X22048Y24180D01*
G01X22063Y24184D01*
G01X22079Y24185D01*
G01X22606Y24185D01*
G01X22645Y24186D01*
G01X22685Y24189D01*
G01X22724Y24195D01*
G01X22762Y24203D01*
G01X22801Y24213D01*
G01X22839Y24224D01*
G01X22876Y24239D01*
G01X22912Y24255D01*
G01X22947Y24273D01*
G01X22981Y24293D01*
G01X23014Y24315D01*
G01X23046Y24339D01*
G01X23076Y24365D01*
G01X23105Y24392D01*
G01X30489Y31775D01*
G01X30500Y31786D01*
G01X30514Y31794D01*
G01X30529Y31800D01*
G01X30545Y31804D01*
G01X30560Y31805D01*
G01X40564Y31805D01*
G01X40580Y31804D01*
G01X40595Y31800D01*
G01X40610Y31794D01*
G01X40623Y31786D01*
G01X40635Y31776D01*
G01X40646Y31764D01*
G01X40677Y31723D01*
G01X40710Y31684D01*
G01X40745Y31646D01*
G01X40781Y31610D01*
G01X40818Y31575D01*
G01X40857Y31541D01*
G01X40897Y31510D01*
G01X40939Y31479D01*
G01X40981Y31451D01*
G01X41025Y31424D01*
G01X41070Y31399D01*
G01X41116Y31377D01*
G01X41163Y31356D01*
G01X41210Y31336D01*
G01X41224Y31330D01*
G01X41237Y31321D01*
G01X41248Y31311D01*
G01X41258Y31299D01*
G01X41265Y31286D01*
G01X41271Y31272D01*
G01X41275Y31257D01*
G01X41276Y31242D01*
G01X41275Y31226D01*
G01X41271Y31211D01*
G01X41265Y31197D01*
G01X41258Y31184D01*
G01X41248Y31172D01*
G01X41237Y31162D01*
G01X41224Y31153D01*
G01X41210Y31147D01*
G01X41163Y31127D01*
G01X41116Y31106D01*
G01X41070Y31084D01*
G01X41025Y31059D01*
G01X40981Y31032D01*
G01X40939Y31004D01*
G01X40897Y30973D01*
G01X40857Y30942D01*
G01X40818Y30908D01*
G01X40781Y30873D01*
G01X40745Y30837D01*
G01X40710Y30799D01*
G01X40677Y30760D01*
G01X40646Y30719D01*
G01X40635Y30707D01*
G01X40623Y30697D01*
G01X40610Y30689D01*
G01X40595Y30683D01*
G01X40580Y30679D01*
G01X40564Y30678D01*
G01X32239Y30678D01*
G01X32223Y30679D01*
G01X32208Y30683D01*
G01X32193Y30689D01*
G01X32180Y30697D01*
G01X32168Y30707D01*
G01X32157Y30719D01*
G01X32126Y30759D01*
G01X32094Y30799D01*
G01X32059Y30836D01*
G01X32023Y30873D01*
G01X31986Y30907D01*
G01X31948Y30941D01*
G01X31907Y30972D01*
G01X31866Y31002D01*
G01X31824Y31031D01*
G01X31780Y31057D01*
G01X31736Y31082D01*
G01X31690Y31105D01*
G01X31644Y31126D01*
G01X31597Y31145D01*
G01X31549Y31162D01*
G01X31500Y31177D01*
G01X31451Y31191D01*
G01X31401Y31202D01*
G01X31351Y31212D01*
G01X31300Y31219D01*
G01X31250Y31224D01*
G01X31199Y31227D01*
G01X31148Y31228D01*
G01X31097Y31227D01*
G01X31046Y31224D01*
G01X30996Y31219D01*
G01X30946Y31212D01*
G01X30897Y31203D01*
G01X30847Y31192D01*
G01X30798Y31179D01*
G01X30702Y31147D01*
G01X30655Y31128D01*
G01X30609Y31107D01*
G01X30564Y31084D01*
G01X30520Y31060D01*
G01X30476Y31034D01*
G01X30434Y31006D01*
G01X30393Y30976D01*
G01X30353Y30945D01*
G01X30314Y30912D01*
G01X30277Y30878D01*
G01X30242Y30842D01*
G01X30207Y30805D01*
G01X30175Y30766D01*
G01X30143Y30726D01*
G01X30114Y30685D01*
G01X30086Y30643D01*
G01X30059Y30600D01*
G01X30035Y30555D01*
G01X30013Y30510D01*
G01X29992Y30464D01*
G01X29973Y30417D01*
G01X29956Y30369D01*
G01X29941Y30321D01*
G01X29928Y30272D01*
G01X29917Y30223D01*
G01X29907Y30173D01*
G01X29900Y30123D01*
G01X29895Y30073D01*
G01X29892Y30022D01*
G01X29891Y29972D01*
G01X29892Y29921D01*
G01X29895Y29870D01*
G01X29900Y29820D01*
G01X29907Y29770D01*
G01X29917Y29720D01*
G01X29928Y29671D01*
G01X29941Y29622D01*
G01X29956Y29574D01*
G01X29973Y29526D01*
G01X29992Y29479D01*
G01X30013Y29433D01*
G01X30035Y29387D01*
G01X30060Y29343D01*
G01X30086Y29300D01*
G01X30114Y29258D01*
G01X30143Y29217D01*
G01X30175Y29176D01*
G01X30207Y29138D01*
G01X30242Y29101D01*
G01X30277Y29065D01*
G01X30315Y29031D01*
G01X30353Y28998D01*
G01X30393Y28967D01*
G01X30434Y28937D01*
G01X30476Y28909D01*
G01X30520Y28883D01*
G01X30564Y28859D01*
G01X30610Y28836D01*
G01X30656Y28815D01*
G01X30703Y28796D01*
G01X30716Y28790D01*
G01X30729Y28781D01*
G01X30741Y28771D01*
G01X30750Y28759D01*
G01X30758Y28746D01*
G01X30763Y28732D01*
G01X30767Y28717D01*
G01X30768Y28702D01*
G01X30767Y28686D01*
G01X30763Y28671D01*
G01X30758Y28657D01*
G01X30750Y28644D01*
G01X30741Y28632D01*
G01X30729Y28622D01*
G01X30716Y28613D01*
G01X30703Y28607D01*
G01X30656Y28588D01*
G01X30610Y28567D01*
G01X30564Y28544D01*
G01X30520Y28520D01*
G01X30476Y28494D01*
G01X30434Y28466D01*
G01X30393Y28436D01*
G01X30353Y28405D01*
G01X30315Y28372D01*
G01X30277Y28338D01*
G01X30242Y28302D01*
G01X30207Y28265D01*
G01X30175Y28227D01*
G01X30143Y28186D01*
G01X30114Y28145D01*
G01X30086Y28103D01*
G01X30060Y28060D01*
G01X30035Y28016D01*
G01X30013Y27970D01*
G01X29992Y27924D01*
G01X29973Y27877D01*
G01X29956Y27829D01*
G01X29941Y27781D01*
G01X29928Y27732D01*
G01X29917Y27683D01*
G01X29907Y27633D01*
G01X29900Y27583D01*
G01X29895Y27533D01*
G01X29892Y27482D01*
G01X29891Y27432D01*
G01X29892Y27381D01*
G01X29895Y27330D01*
G01X29900Y27280D01*
G01X29907Y27230D01*
G01X29917Y27180D01*
G01X29928Y27131D01*
G01X29941Y27082D01*
G01X29956Y27034D01*
G01X29973Y26986D01*
G01X29992Y26939D01*
G01X30013Y26893D01*
G01X30035Y26847D01*
G01X30060Y26803D01*
G01X30086Y26760D01*
G01X30114Y26718D01*
G01X30143Y26677D01*
G01X30175Y26636D01*
G01X30207Y26598D01*
G01X30242Y26561D01*
G01X30277Y26525D01*
G01X30315Y26491D01*
G01X30353Y26458D01*
G01X30393Y26427D01*
G01X30434Y26397D01*
G01X30476Y26369D01*
G01X30520Y26343D01*
G01X30564Y26319D01*
G01X30610Y26296D01*
G01X30656Y26275D01*
G01X30703Y26256D01*
G01X30716Y26250D01*
G01X30729Y26241D01*
G01X30741Y26231D01*
G01X30750Y26219D01*
G01X30758Y26206D01*
G01X30763Y26192D01*
G01X30767Y26177D01*
G01X30768Y26162D01*
G01X30767Y26146D01*
G01X30763Y26131D01*
G01X30758Y26117D01*
G01X30750Y26104D01*
G01X30741Y26092D01*
G01X30729Y26082D01*
G01X30716Y26073D01*
G01X30703Y26067D01*
G01X30656Y26048D01*
G01X30610Y26027D01*
G01X30564Y26004D01*
G01X30520Y25980D01*
G01X30476Y25954D01*
G01X30434Y25926D01*
G01X30393Y25896D01*
G01X30353Y25865D01*
G01X30315Y25832D01*
G01X30277Y25798D01*
G01X30242Y25762D01*
G01X30207Y25725D01*
G01X30175Y25687D01*
G01X30143Y25646D01*
G01X30114Y25605D01*
G01X30086Y25563D01*
G01X30060Y25520D01*
G01X30035Y25476D01*
G01X30013Y25430D01*
G01X29992Y25384D01*
G01X29973Y25337D01*
G01X29956Y25289D01*
G01X29941Y25241D01*
G01X29928Y25192D01*
G01X29917Y25143D01*
G01X29907Y25093D01*
G01X29900Y25043D01*
G01X29895Y24993D01*
G01X29892Y24942D01*
G01X29891Y24892D01*
G01X29892Y24841D01*
G01X29895Y24790D01*
G01X29900Y24740D01*
G01X29907Y24690D01*
G01X29917Y24640D01*
G01X29928Y24591D01*
G01X29941Y24542D01*
G01X29956Y24494D01*
G01X29973Y24446D01*
G01X29992Y24399D01*
G01X30013Y24353D01*
G01X30035Y24307D01*
G01X30060Y24263D01*
G01X30086Y24220D01*
G01X30114Y24178D01*
G01X30143Y24137D01*
G01X30175Y24096D01*
G01X30207Y24058D01*
G01X30242Y24021D01*
G01X30277Y23985D01*
G01X30315Y23951D01*
G01X30353Y23918D01*
G01X30393Y23887D01*
G01X30434Y23857D01*
G01X30476Y23829D01*
G01X30520Y23803D01*
G01X30564Y23779D01*
G01X30610Y23756D01*
G01X30656Y23735D01*
G01X30703Y23716D01*
G01X30716Y23710D01*
G01X30729Y23701D01*
G01X30741Y23691D01*
G01X30750Y23679D01*
G01X30758Y23666D01*
G01X30763Y23652D01*
G01X30767Y23637D01*
G01X30768Y23622D01*
G01X30767Y23606D01*
G01X30763Y23591D01*
G01X30758Y23577D01*
G01X30750Y23564D01*
G01X30741Y23552D01*
G01X30729Y23542D01*
G01X30716Y23533D01*
G01X30703Y23527D01*
G01X30656Y23508D01*
G01X30610Y23487D01*
G01X30564Y23464D01*
G01X30520Y23440D01*
G01X30476Y23414D01*
G01X30434Y23386D01*
G01X30393Y23356D01*
G01X30353Y23325D01*
G01X30315Y23292D01*
G01X30277Y23258D01*
G01X30242Y23222D01*
G01X30207Y23185D01*
G01X30175Y23147D01*
G01X30143Y23106D01*
G01X30114Y23065D01*
G01X30086Y23023D01*
G01X30060Y22980D01*
G01X30035Y22936D01*
G01X30013Y22890D01*
G01X29992Y22844D01*
G01X29973Y22797D01*
G01X29956Y22749D01*
G01X29941Y22701D01*
G01X29928Y22652D01*
G01X29917Y22603D01*
G01X29907Y22553D01*
G01X29900Y22503D01*
G01X29895Y22453D01*
G01X29892Y22402D01*
G01X29891Y22352D01*
G01X29892Y22301D01*
G01X29895Y22249D01*
G01X29900Y22199D01*
G01X29908Y22148D01*
G01X29917Y22098D01*
G01X29928Y22049D01*
G01X29942Y21999D01*
G01X29957Y21951D01*
G01X29974Y21902D01*
G01X29993Y21855D01*
G01X30014Y21809D01*
G01X30038Y21763D01*
G01X30062Y21719D01*
G01X30089Y21675D01*
G01X30117Y21633D01*
G01X30147Y21592D01*
G01X30179Y21552D01*
G01X30212Y21513D01*
G01X30247Y21476D01*
G01X30283Y21440D01*
G01X30294Y21427D01*
G01X30303Y21414D01*
G01X30309Y21398D01*
G01X30313Y21383D01*
G01X30315Y21366D01*
G01X30313Y21350D01*
G01X30310Y21335D01*
G01X30304Y21320D01*
G01X30295Y21307D01*
G01X30285Y21294D01*
G01X28974Y19983D01*
G01X28962Y19973D01*
G01X28948Y19964D01*
G01X28933Y19958D01*
G01X28917Y19954D01*
G01X28902Y19953D01*
G01X28887Y19954D01*
G01X28825Y19962D01*
G01X28763Y19966D01*
G01X28702Y19968D01*
G01X28651Y19967D01*
G01X28600Y19964D01*
G01X28550Y19959D01*
G01X28500Y19952D01*
G01X28450Y19943D01*
G01X28401Y19931D01*
G01X28352Y19918D01*
G01X28304Y19903D01*
G01X28256Y19886D01*
G01X28209Y19867D01*
G01X28163Y19847D01*
G01X28118Y19824D01*
G01X28073Y19800D01*
G01X28030Y19773D01*
G01X27988Y19745D01*
G01X27947Y19716D01*
G01X27907Y19685D01*
G01X27868Y19652D01*
G01X27831Y19618D01*
G01X27795Y19582D01*
G01X27761Y19545D01*
G01X27728Y19506D01*
G01X27697Y19467D01*
G01X27667Y19425D01*
G01X27639Y19383D01*
G01X27613Y19340D01*
G01X27589Y19295D01*
G01X27566Y19250D01*
G01X27545Y19204D01*
G01X27526Y19157D01*
G01X27494Y19061D01*
G01X27481Y19012D01*
G01X27470Y18963D01*
G01X27461Y18913D01*
G01X27454Y18863D01*
G01X27449Y18813D01*
G01X27446Y18762D01*
G01X27445Y18712D01*
G01X27446Y18661D01*
G01X27449Y18611D01*
G01X27454Y18560D01*
G01X27461Y18510D01*
G01X27470Y18460D01*
G01X27481Y18411D01*
G01X27494Y18362D01*
G01X27510Y18313D01*
G01X27526Y18266D01*
G01X27545Y18219D01*
G01X27566Y18173D01*
G01X27589Y18127D01*
G01X27613Y18083D01*
G01X27639Y18040D01*
G01X27667Y17998D01*
G01X27697Y17957D01*
G01X27728Y17917D01*
G01X27761Y17878D01*
G01X27795Y17841D01*
G01X27831Y17805D01*
G01X27868Y17771D01*
G01X27907Y17738D01*
G01X27947Y17707D01*
G01X27988Y17677D01*
G01X28030Y17649D01*
G01X28073Y17624D01*
G01X28118Y17599D01*
G01X28163Y17576D01*
G01X28209Y17555D01*
G01X28256Y17537D01*
G01X28304Y17519D01*
G01X28352Y17505D01*
G01X28401Y17491D01*
G01X28450Y17480D01*
G01X28500Y17471D01*
G01X28550Y17464D01*
G01X28600Y17459D01*
G01X28651Y17456D01*
G01X28702Y17455D01*
G01X28752Y17456D01*
G01X28803Y17459D01*
G01X28853Y17464D01*
G01X28903Y17471D01*
G01X28953Y17480D01*
G01X29002Y17491D01*
G01X29051Y17505D01*
G01X29099Y17519D01*
G01X29147Y17537D01*
G01X29194Y17555D01*
G01X29240Y17576D01*
G01X29285Y17599D01*
G01X29330Y17624D01*
G01X29373Y17649D01*
G01X29415Y17677D01*
G01X29456Y17707D01*
G01X29496Y17738D01*
G01X29535Y17771D01*
G01X29572Y17805D01*
G01X29608Y17841D01*
G01X29642Y17878D01*
G01X29675Y17917D01*
G01X29706Y17957D01*
G01X29736Y17998D01*
G01X29764Y18040D01*
G01X29790Y18083D01*
G01X29814Y18127D01*
G01X29837Y18173D01*
G01X29858Y18219D01*
G01X29877Y18266D01*
G01X29893Y18313D01*
G01X29909Y18362D01*
G01X29922Y18411D01*
G01X29933Y18460D01*
G01X29942Y18510D01*
G01X29949Y18560D01*
G01X29954Y18611D01*
G01X29957Y18661D01*
G01X29958Y18712D01*
G01X29956Y18774D01*
G01X29952Y18836D01*
G01X29944Y18897D01*
G01X29943Y18912D01*
G01X29945Y18928D01*
G01X29948Y18943D01*
G01X29954Y18958D01*
G01X29962Y18972D01*
G01X29973Y18984D01*
G01X31647Y20658D01*
G01X31674Y20687D01*
G01X31700Y20717D01*
G01X31724Y20749D01*
G01X31746Y20782D01*
G01X31766Y20816D01*
G01X31784Y20851D01*
G01X31800Y20887D01*
G01X31815Y20925D01*
G01X31826Y20962D01*
G01X31836Y21001D01*
G01X31844Y21039D01*
G01X31850Y21078D01*
G01X31853Y21118D01*
G01X31854Y21158D01*
G01X31854Y21260D01*
G01X31855Y21276D01*
G01X31859Y21291D01*
G01X31865Y21306D01*
G01X31873Y21319D01*
G01X31883Y21331D01*
G01X31895Y21342D01*
G01X31937Y21374D01*
G01X31978Y21408D01*
G01X32017Y21444D01*
G01X32055Y21482D01*
G01X32091Y21521D01*
G01X32125Y21562D01*
G01X32157Y21604D01*
G01X32168Y21616D01*
G01X32180Y21626D01*
G01X32193Y21634D01*
G01X32208Y21640D01*
G01X32223Y21644D01*
G01X32239Y21645D01*
G01X40564Y21645D01*
G01X40580Y21644D01*
G01X40595Y21640D01*
G01X40610Y21634D01*
G01X40623Y21626D01*
G01X40635Y21616D01*
G01X40646Y21604D01*
G01X40677Y21563D01*
G01X40710Y21524D01*
G01X40745Y21486D01*
G01X40781Y21450D01*
G01X40818Y21415D01*
G01X40857Y21381D01*
G01X40897Y21350D01*
G01X40939Y21319D01*
G01X40981Y21291D01*
G01X41025Y21264D01*
G01X41070Y21239D01*
G01X41116Y21217D01*
G01X41163Y21196D01*
G01X41210Y21176D01*
G01X41228Y21170D01*
G01X41280Y21153D01*
G01X41332Y21137D01*
G01X41385Y21124D01*
G01X41439Y21114D01*
G01X41492Y21105D01*
G01X41547Y21100D01*
G01X41601Y21096D01*
G01X41656Y21095D01*
G01X41710Y21096D01*
G01X41764Y21100D01*
G01X41819Y21105D01*
G01X41872Y21114D01*
G01X41926Y21124D01*
G01X41979Y21137D01*
G01X42031Y21153D01*
G01X42083Y21170D01*
G01X42101Y21176D01*
G01X42148Y21195D01*
G01X42194Y21216D01*
G01X42239Y21239D01*
G01X42283Y21263D01*
G01X42327Y21289D01*
G01X42369Y21317D01*
G01X42410Y21347D01*
G01X42450Y21378D01*
G01X42489Y21411D01*
G01X42526Y21445D01*
G01X42562Y21481D01*
G01X42596Y21518D01*
G01X42629Y21556D01*
G01X42660Y21597D01*
G01X42689Y21638D01*
G01X42717Y21680D01*
G01X42744Y21723D01*
G01X42768Y21767D01*
G01X42791Y21813D01*
G01X42811Y21859D01*
G01X42831Y21906D01*
G01X42863Y22002D01*
G01X42876Y22051D01*
G01X42886Y22100D01*
G01X42896Y22150D01*
G01X42903Y22200D01*
G01X42908Y22250D01*
G01X42911Y22301D01*
G01X42912Y22352D01*
G01X42911Y22402D01*
G01X42908Y22453D01*
G01X42903Y22503D01*
G01X42896Y22553D01*
G01X42886Y22603D01*
G01X42876Y22652D01*
G01X42863Y22701D01*
G01X42831Y22797D01*
G01X42811Y22844D01*
G01X42791Y22890D01*
G01X42768Y22936D01*
G01X42744Y22980D01*
G01X42717Y23023D01*
G01X42689Y23065D01*
G01X42660Y23106D01*
G01X42629Y23147D01*
G01X42596Y23185D01*
G01X42562Y23222D01*
G01X42526Y23258D01*
G01X42489Y23292D01*
G01X42450Y23325D01*
G01X42410Y23356D01*
G01X42369Y23386D01*
G01X42327Y23414D01*
G01X42283Y23440D01*
G01X42239Y23464D01*
G01X42194Y23487D01*
G01X42148Y23508D01*
G01X42101Y23527D01*
G01X42087Y23533D01*
G01X42074Y23542D01*
G01X42063Y23552D01*
G01X42053Y23564D01*
G01X42046Y23577D01*
G01X42040Y23591D01*
G01X42037Y23606D01*
G01X42035Y23622D01*
G01X42037Y23637D01*
G01X42040Y23652D01*
G01X42046Y23666D01*
G01X42053Y23679D01*
G01X42063Y23691D01*
G01X42074Y23701D01*
G01X42087Y23710D01*
G01X42101Y23716D01*
G01X42148Y23735D01*
G01X42194Y23756D01*
G01X42239Y23779D01*
G01X42283Y23803D01*
G01X42327Y23829D01*
G01X42369Y23857D01*
G01X42410Y23887D01*
G01X42450Y23918D01*
G01X42489Y23951D01*
G01X42526Y23985D01*
G01X42562Y24021D01*
G01X42596Y24058D01*
G01X42629Y24096D01*
G01X42660Y24137D01*
G01X42689Y24178D01*
G01X42717Y24220D01*
G01X42744Y24263D01*
G01X42768Y24307D01*
G01X42791Y24353D01*
G01X42811Y24399D01*
G01X42831Y24446D01*
G01X42863Y24542D01*
G01X42876Y24591D01*
G01X42886Y24640D01*
G01X42896Y24690D01*
G01X42903Y24740D01*
G01X42908Y24790D01*
G01X42911Y24841D01*
G01X42912Y24892D01*
G01X42911Y24942D01*
G01X42908Y24993D01*
G01X42903Y25043D01*
G01X42896Y25093D01*
G01X42886Y25143D01*
G01X42876Y25192D01*
G01X42863Y25241D01*
G01X42831Y25337D01*
G01X42811Y25384D01*
G01X42791Y25430D01*
G01X42768Y25476D01*
G01X42744Y25520D01*
G01X42717Y25563D01*
G01X42689Y25605D01*
G01X42660Y25646D01*
G01X42629Y25687D01*
G01X42596Y25725D01*
G01X42562Y25762D01*
G01X42526Y25798D01*
G01X42489Y25832D01*
G01X42450Y25865D01*
G01X42410Y25896D01*
G01X42369Y25926D01*
G01X42327Y25954D01*
G01X42283Y25980D01*
G01X42239Y26004D01*
G01X42194Y26027D01*
G01X42148Y26048D01*
G01X42101Y26067D01*
G01X42087Y26073D01*
G01X42074Y26082D01*
G01X42063Y26092D01*
G01X42053Y26104D01*
G01X42046Y26117D01*
G01X42040Y26131D01*
G01X42037Y26146D01*
G01X42035Y26162D01*
G01X42037Y26177D01*
G01X42040Y26192D01*
G01X42046Y26206D01*
G01X42053Y26219D01*
G01X42063Y26231D01*
G01X42074Y26241D01*
G01X42087Y26250D01*
G01X42101Y26256D01*
G01X42148Y26275D01*
G01X42194Y26296D01*
G01X42239Y26319D01*
G01X42283Y26343D01*
G01X42327Y26369D01*
G01X42369Y26397D01*
G01X42410Y26427D01*
G01X42450Y26458D01*
G01X42489Y26491D01*
G01X42526Y26525D01*
G01X42562Y26561D01*
G01X42596Y26598D01*
G01X42629Y26636D01*
G01X42660Y26677D01*
G01X42689Y26718D01*
G01X42717Y26760D01*
G01X42744Y26803D01*
G01X42768Y26847D01*
G01X42791Y26893D01*
G01X42811Y26939D01*
G01X42831Y26986D01*
G01X42863Y27082D01*
G01X42876Y27131D01*
G01X42886Y27180D01*
G01X42896Y27230D01*
G01X42903Y27280D01*
G01X42908Y27330D01*
G01X42911Y27381D01*
G01X42912Y27432D01*
G01X42911Y27482D01*
G01X42908Y27533D01*
G01X42903Y27583D01*
G01X42896Y27633D01*
G01X42886Y27683D01*
G01X42876Y27732D01*
G01X42863Y27781D01*
G01X42831Y27877D01*
G01X42811Y27924D01*
G01X42791Y27970D01*
G01X42768Y28016D01*
G01X42744Y28060D01*
G01X42717Y28103D01*
G01X42689Y28145D01*
G01X42660Y28186D01*
G01X42629Y28227D01*
G01X42596Y28265D01*
G01X42562Y28302D01*
G01X42526Y28338D01*
G01X42489Y28372D01*
G01X42450Y28405D01*
G01X42410Y28436D01*
G01X42369Y28466D01*
G01X42327Y28494D01*
G01X42283Y28520D01*
G01X42239Y28544D01*
G01X42194Y28567D01*
G01X42148Y28588D01*
G01X42101Y28607D01*
G01X42087Y28613D01*
G01X42074Y28622D01*
G01X42063Y28632D01*
G01X42053Y28644D01*
G01X42046Y28657D01*
G01X42040Y28671D01*
G01X42037Y28686D01*
G01X42035Y28702D01*
G01X42037Y28717D01*
G01X42040Y28732D01*
G01X42046Y28746D01*
G01X42053Y28759D01*
G01X42063Y28771D01*
G01X42074Y28781D01*
G01X42087Y28790D01*
G01X42101Y28796D01*
G01X42149Y28816D01*
G01X42197Y28838D01*
G01X42243Y28861D01*
G01X42289Y28886D01*
G01X42333Y28913D01*
G01X42376Y28942D01*
G01X42419Y28973D01*
G01X42459Y29006D01*
G01X42499Y29040D01*
G01X42537Y29076D01*
G01X42573Y29113D01*
G01X42608Y29152D01*
G01X42641Y29192D01*
G01X42673Y29233D01*
G01X42702Y29277D01*
G01X42730Y29320D01*
G01X42756Y29365D01*
G01X42780Y29412D01*
G01X42803Y29459D01*
G01X42810Y29472D01*
G01X42818Y29483D01*
G01X42828Y29494D01*
G01X42840Y29503D01*
G01X42853Y29510D01*
G01X42867Y29515D01*
G01X42881Y29518D01*
G01X42896Y29519D01*
G01X43053Y29519D01*
G01X43092Y29520D01*
G01X43131Y29523D01*
G01X43171Y29529D01*
G01X43209Y29537D01*
G01X43248Y29546D01*
G01X43286Y29558D01*
G01X43358Y29588D01*
G01X43394Y29607D01*
G01X43428Y29627D01*
G01X43461Y29649D01*
G01X43492Y29673D01*
G01X43522Y29698D01*
G01X43551Y29725D01*
G01X43579Y29754D01*
G01X43604Y29784D01*
G01X44620Y31054D01*
G01X44644Y31086D01*
G01X44666Y31119D01*
G01X44687Y31153D01*
G01X44705Y31188D01*
G01X44721Y31225D01*
G01X44735Y31262D01*
G01X44747Y31299D01*
G01X44757Y31338D01*
G01X44765Y31377D01*
G01X44771Y31416D01*
G01X44774Y31456D01*
G01X44775Y31496D01*
G01X44775Y40894D01*
G01X44774Y40932D01*
G01X44771Y40971D01*
G01X44765Y41009D01*
G01X44758Y41047D01*
G01X44749Y41084D01*
G01X44738Y41121D01*
G01X44724Y41157D01*
G01X44709Y41193D01*
G01X44691Y41227D01*
G01X44672Y41261D01*
G01X44651Y41293D01*
G01X44628Y41324D01*
G01X44604Y41354D01*
G01X42263Y44076D01*
G01X42238Y44105D01*
G01X42211Y44131D01*
G01X42182Y44156D01*
G01X42152Y44180D01*
G01X42121Y44202D01*
G01X42089Y44222D01*
G01X42056Y44241D01*
G01X42022Y44258D01*
G01X41987Y44273D01*
G01X41952Y44286D01*
G01X41915Y44297D01*
G01X41878Y44306D01*
G01X41841Y44313D01*
G01X41803Y44318D01*
G01X41765Y44321D01*
G01X41728Y44322D01*
G01X35555Y44322D01*
G01X35539Y44324D01*
G01X35524Y44327D01*
G01X35509Y44333D01*
G01X35496Y44341D01*
G01X35484Y44351D01*
G01X35473Y44363D01*
G01X35442Y44404D01*
G01X35410Y44443D01*
G01X35375Y44480D01*
G01X35339Y44517D01*
G01X35302Y44552D01*
G01X35263Y44585D01*
G01X35223Y44617D01*
G01X35182Y44647D01*
G01X35140Y44675D01*
G01X35096Y44701D01*
G01X35052Y44726D01*
G01X35006Y44749D01*
G01X34960Y44770D01*
G01X34912Y44789D01*
G01X34865Y44807D01*
G01X34816Y44822D01*
G01X34767Y44835D01*
G01X34717Y44846D01*
G01X34666Y44855D01*
G01X34616Y44863D01*
G01X34565Y44868D01*
G01X34515Y44871D01*
G01X34464Y44872D01*
G01X34412Y44871D01*
G01X34362Y44868D01*
G01X34311Y44863D01*
G01X34261Y44856D01*
G01X34210Y44846D01*
G01X34161Y44835D01*
G01X34112Y44822D01*
G01X34063Y44807D01*
G01X34015Y44789D01*
G01X33968Y44770D01*
G01X33921Y44749D01*
G01X33876Y44726D01*
G01X33831Y44701D01*
G01X33788Y44675D01*
G01X33745Y44647D01*
G01X33704Y44617D01*
G01X33664Y44585D01*
G01X33626Y44552D01*
G01X33588Y44517D01*
G01X33552Y44481D01*
G01X33518Y44443D01*
G01X33485Y44404D01*
G01X33454Y44364D01*
G01X33444Y44352D01*
G01X33431Y44342D01*
G01X33418Y44334D01*
G01X33404Y44328D01*
G01X33388Y44324D01*
G01X33373Y44323D01*
G01X25554Y44323D01*
G01X25539Y44324D01*
G01X25523Y44328D01*
G01X25509Y44334D01*
G01X25496Y44342D01*
G01X25483Y44352D01*
G01X25473Y44364D01*
G01X25442Y44404D01*
G01X25409Y44443D01*
G01X25375Y44481D01*
G01X25339Y44517D01*
G01X25301Y44552D01*
G01X25263Y44585D01*
G01X25223Y44617D01*
G01X25182Y44647D01*
G01X25139Y44675D01*
G01X25096Y44701D01*
G01X25051Y44726D01*
G01X25006Y44749D01*
G01X24959Y44770D01*
G01X24912Y44789D01*
G01X24864Y44807D01*
G01X24815Y44822D01*
G01X24766Y44835D01*
G01X24717Y44846D01*
G01X24666Y44856D01*
G01X24616Y44863D01*
G01X24565Y44868D01*
G01X24515Y44871D01*
G37*
G36*
G01X42779Y19248D02*
G01X42219Y19248D01*
G01X42219Y18688D01*
G01X42267Y18714D01*
G01X42313Y18741D01*
G01X42358Y18770D01*
G01X42402Y18801D01*
G01X42444Y18834D01*
G01X42485Y18868D01*
G01X42525Y18904D01*
G01X42563Y18942D01*
G01X42599Y18982D01*
G01X42633Y19023D01*
G01X42666Y19065D01*
G01X42697Y19109D01*
G01X42726Y19154D01*
G01X42753Y19200D01*
G01X42779Y19248D01*
G37*
G36*
G01X41092Y19248D02*
G01X40532Y19248D01*
G01X40558Y19200D01*
G01X40585Y19154D01*
G01X40614Y19109D01*
G01X40645Y19065D01*
G01X40678Y19023D01*
G01X40712Y18982D01*
G01X40748Y18942D01*
G01X40786Y18904D01*
G01X40826Y18868D01*
G01X40867Y18834D01*
G01X40909Y18801D01*
G01X40953Y18770D01*
G01X40998Y18741D01*
G01X41044Y18714D01*
G01X41092Y18688D01*
G01X41092Y19248D01*
G37*
G36*
G01X46172Y19248D02*
G01X45612Y19248D01*
G01X45638Y19200D01*
G01X45665Y19154D01*
G01X45694Y19109D01*
G01X45725Y19065D01*
G01X45758Y19023D01*
G01X45792Y18982D01*
G01X45828Y18942D01*
G01X45866Y18904D01*
G01X45906Y18868D01*
G01X45947Y18834D01*
G01X45989Y18801D01*
G01X46033Y18770D01*
G01X46078Y18741D01*
G01X46124Y18714D01*
G01X46172Y18688D01*
G01X46172Y19248D01*
G37*
G36*
G01X47859Y19248D02*
G01X47299Y19248D01*
G01X47299Y18688D01*
G01X47347Y18714D01*
G01X47393Y18741D01*
G01X47438Y18770D01*
G01X47482Y18801D01*
G01X47524Y18834D01*
G01X47565Y18868D01*
G01X47605Y18904D01*
G01X47643Y18942D01*
G01X47679Y18982D01*
G01X47713Y19023D01*
G01X47746Y19065D01*
G01X47777Y19109D01*
G01X47806Y19154D01*
G01X47833Y19200D01*
G01X47859Y19248D01*
G37*
G36*
G01X9931Y48500D02*
G01X9601Y48500D01*
G01X9601Y47807D01*
G01X10187Y47807D01*
G01X10187Y48243D01*
G01X10186Y48267D01*
G01X10183Y48290D01*
G01X10178Y48314D01*
G01X10170Y48336D01*
G01X10161Y48358D01*
G01X10149Y48378D01*
G01X10136Y48398D01*
G01X10120Y48416D01*
G01X10104Y48433D01*
G01X10085Y48448D01*
G01X10066Y48462D01*
G01X10045Y48473D01*
G01X10023Y48483D01*
G01X10001Y48490D01*
G01X9978Y48496D01*
G01X9955Y48499D01*
G01X9931Y48500D01*
G37*
G36*
G01X42267Y20909D02*
G01X42219Y20935D01*
G01X42219Y20375D01*
G01X42779Y20375D01*
G01X42753Y20423D01*
G01X42726Y20469D01*
G01X42697Y20514D01*
G01X42666Y20558D01*
G01X42633Y20600D01*
G01X42599Y20641D01*
G01X42563Y20681D01*
G01X42525Y20719D01*
G01X42485Y20755D01*
G01X42444Y20789D01*
G01X42402Y20822D01*
G01X42358Y20853D01*
G01X42313Y20882D01*
G01X42267Y20909D01*
G37*
G36*
G01X41092Y20375D02*
G01X41092Y20935D01*
G01X41044Y20909D01*
G01X40998Y20882D01*
G01X40953Y20853D01*
G01X40909Y20822D01*
G01X40867Y20789D01*
G01X40826Y20755D01*
G01X40786Y20719D01*
G01X40748Y20681D01*
G01X40712Y20641D01*
G01X40678Y20600D01*
G01X40645Y20558D01*
G01X40614Y20514D01*
G01X40585Y20469D01*
G01X40558Y20423D01*
G01X40532Y20375D01*
G01X41092Y20375D01*
G37*
G36*
G01X46172Y20375D02*
G01X46172Y20935D01*
G01X46124Y20909D01*
G01X46078Y20882D01*
G01X46033Y20853D01*
G01X45989Y20822D01*
G01X45947Y20789D01*
G01X45906Y20755D01*
G01X45866Y20719D01*
G01X45828Y20681D01*
G01X45792Y20641D01*
G01X45758Y20600D01*
G01X45725Y20558D01*
G01X45694Y20514D01*
G01X45665Y20469D01*
G01X45638Y20423D01*
G01X45612Y20375D01*
G01X46172Y20375D01*
G37*
G36*
G01X47347Y20909D02*
G01X47299Y20935D01*
G01X47299Y20375D01*
G01X47859Y20375D01*
G01X47833Y20423D01*
G01X47806Y20469D01*
G01X47777Y20514D01*
G01X47746Y20558D01*
G01X47713Y20600D01*
G01X47679Y20641D01*
G01X47643Y20681D01*
G01X47605Y20719D01*
G01X47565Y20755D01*
G01X47524Y20789D01*
G01X47482Y20822D01*
G01X47438Y20853D01*
G01X47393Y20882D01*
G01X47347Y20909D01*
G37*
G36*
G01X29514Y48571D02*
G01X29464Y48572D01*
G01X29413Y48571D01*
G01X29361Y48568D01*
G01X29311Y48563D01*
G01X29260Y48555D01*
G01X29210Y48546D01*
G01X29160Y48535D01*
G01X29111Y48522D01*
G01X29062Y48506D01*
G01X29014Y48489D01*
G01X28967Y48470D01*
G01X28920Y48448D01*
G01X28875Y48426D01*
G01X28831Y48401D01*
G01X28787Y48374D01*
G01X28745Y48346D01*
G01X28703Y48316D01*
G01X28663Y48284D01*
G01X28624Y48251D01*
G01X28587Y48216D01*
G01X28551Y48180D01*
G01X28517Y48142D01*
G01X28484Y48103D01*
G01X28453Y48062D01*
G01X28443Y48050D01*
G01X28431Y48040D01*
G01X28417Y48032D01*
G01X28402Y48026D01*
G01X28387Y48022D01*
G01X28371Y48021D01*
G01X12719Y48021D01*
G01X12704Y48022D01*
G01X12690Y48025D01*
G01X12676Y48030D01*
G01X12663Y48038D01*
G01X12651Y48047D01*
G01X12641Y48057D01*
G01X12607Y48096D01*
G01X12571Y48133D01*
G01X12533Y48169D01*
G01X12494Y48203D01*
G01X12454Y48236D01*
G01X12412Y48267D01*
G01X12370Y48296D01*
G01X12326Y48324D01*
G01X12280Y48349D01*
G01X12235Y48373D01*
G01X12187Y48395D01*
G01X12140Y48414D01*
G01X12091Y48432D01*
G01X12042Y48448D01*
G01X11991Y48462D01*
G01X11941Y48473D01*
G01X11890Y48483D01*
G01X11838Y48491D01*
G01X11787Y48496D01*
G01X11735Y48499D01*
G01X11684Y48500D01*
G01X11633Y48499D01*
G01X11582Y48496D01*
G01X11532Y48491D01*
G01X11482Y48484D01*
G01X11432Y48475D01*
G01X11383Y48464D01*
G01X11334Y48451D01*
G01X11238Y48419D01*
G01X11191Y48400D01*
G01X11145Y48379D01*
G01X11100Y48356D01*
G01X11055Y48332D01*
G01X11012Y48306D01*
G01X10970Y48278D01*
G01X10929Y48248D01*
G01X10889Y48217D01*
G01X10850Y48184D01*
G01X10813Y48150D01*
G01X10777Y48114D01*
G01X10743Y48077D01*
G01X10710Y48038D01*
G01X10679Y47998D01*
G01X10649Y47957D01*
G01X10621Y47915D01*
G01X10595Y47872D01*
G01X10571Y47827D01*
G01X10548Y47782D01*
G01X10527Y47736D01*
G01X10508Y47689D01*
G01X10476Y47593D01*
G01X10463Y47544D01*
G01X10452Y47495D01*
G01X10443Y47445D01*
G01X10436Y47395D01*
G01X10431Y47345D01*
G01X10428Y47294D01*
G01X10427Y47244D01*
G01X10428Y47193D01*
G01X10431Y47142D01*
G01X10436Y47092D01*
G01X10443Y47042D01*
G01X10452Y46992D01*
G01X10463Y46943D01*
G01X10476Y46894D01*
G01X10508Y46798D01*
G01X10527Y46751D01*
G01X10548Y46705D01*
G01X10571Y46660D01*
G01X10595Y46615D01*
G01X10621Y46572D01*
G01X10649Y46530D01*
G01X10679Y46489D01*
G01X10710Y46449D01*
G01X10743Y46410D01*
G01X10777Y46373D01*
G01X10813Y46337D01*
G01X10850Y46303D01*
G01X10889Y46270D01*
G01X10929Y46239D01*
G01X10970Y46209D01*
G01X11012Y46181D01*
G01X11055Y46155D01*
G01X11100Y46131D01*
G01X11145Y46108D01*
G01X11191Y46087D01*
G01X11238Y46068D01*
G01X11334Y46036D01*
G01X11383Y46023D01*
G01X11432Y46012D01*
G01X11482Y46003D01*
G01X11532Y45996D01*
G01X11582Y45991D01*
G01X11633Y45988D01*
G01X11684Y45987D01*
G01X11736Y45988D01*
G01X11788Y45991D01*
G01X11840Y45997D01*
G01X11891Y46004D01*
G01X11943Y46014D01*
G01X11993Y46026D01*
G01X12044Y46040D01*
G01X12093Y46056D01*
G01X12143Y46074D01*
G01X12190Y46094D01*
G01X12238Y46116D01*
G01X12284Y46140D01*
G01X12330Y46166D01*
G01X12374Y46193D01*
G01X12417Y46223D01*
G01X12459Y46254D01*
G01X12499Y46287D01*
G01X12538Y46322D01*
G01X12576Y46359D01*
G01X12612Y46396D01*
G01X12646Y46436D01*
G01X12679Y46476D01*
G01X12710Y46519D01*
G01X12739Y46562D01*
G01X12748Y46573D01*
G01X12758Y46584D01*
G01X12770Y46592D01*
G01X12782Y46599D01*
G01X12796Y46604D01*
G01X12810Y46607D01*
G01X12824Y46608D01*
G01X28372Y46608D01*
G01X28388Y46607D01*
G01X28404Y46603D01*
G01X28418Y46597D01*
G01X28432Y46589D01*
G01X28444Y46579D01*
G01X28454Y46567D01*
G01X28485Y46527D01*
G01X28518Y46488D01*
G01X28553Y46450D01*
G01X28588Y46414D01*
G01X28625Y46379D01*
G01X28664Y46346D01*
G01X28704Y46314D01*
G01X28745Y46284D01*
G01X28788Y46256D01*
G01X28831Y46230D01*
G01X28876Y46205D01*
G01X28921Y46182D01*
G01X28968Y46161D01*
G01X29015Y46142D01*
G01X29063Y46124D01*
G01X29111Y46109D01*
G01X29161Y46096D01*
G01X29211Y46085D01*
G01X29260Y46075D01*
G01X29311Y46068D01*
G01X29362Y46063D01*
G01X29413Y46060D01*
G01X29464Y46059D01*
G01X29514Y46060D01*
G01X29565Y46063D01*
G01X29615Y46068D01*
G01X29665Y46075D01*
G01X29715Y46084D01*
G01X29764Y46095D01*
G01X29813Y46109D01*
G01X29861Y46123D01*
G01X29909Y46141D01*
G01X29956Y46159D01*
G01X30002Y46180D01*
G01X30047Y46203D01*
G01X30092Y46227D01*
G01X30135Y46253D01*
G01X30177Y46281D01*
G01X30218Y46311D01*
G01X30258Y46342D01*
G01X30297Y46375D01*
G01X30334Y46409D01*
G01X30370Y46445D01*
G01X30404Y46482D01*
G01X30437Y46521D01*
G01X30468Y46561D01*
G01X30498Y46601D01*
G01X30526Y46644D01*
G01X30552Y46687D01*
G01X30576Y46731D01*
G01X30599Y46777D01*
G01X30620Y46823D01*
G01X30639Y46870D01*
G01X30655Y46917D01*
G01X30671Y46966D01*
G01X30684Y47015D01*
G01X30695Y47064D01*
G01X30704Y47114D01*
G01X30711Y47164D01*
G01X30716Y47214D01*
G01X30719Y47265D01*
G01X30720Y47315D01*
G01X30719Y47366D01*
G01X30716Y47417D01*
G01X30711Y47467D01*
G01X30704Y47517D01*
G01X30695Y47567D01*
G01X30684Y47616D01*
G01X30671Y47665D01*
G01X30639Y47761D01*
G01X30620Y47808D01*
G01X30599Y47854D01*
G01X30576Y47899D01*
G01X30552Y47944D01*
G01X30526Y47987D01*
G01X30498Y48029D01*
G01X30468Y48070D01*
G01X30437Y48110D01*
G01X30404Y48149D01*
G01X30370Y48186D01*
G01X30334Y48221D01*
G01X30297Y48256D01*
G01X30258Y48288D01*
G01X30218Y48320D01*
G01X30177Y48349D01*
G01X30135Y48377D01*
G01X30092Y48404D01*
G01X30047Y48428D01*
G01X30002Y48451D01*
G01X29956Y48471D01*
G01X29909Y48490D01*
G01X29861Y48507D01*
G01X29813Y48522D01*
G01X29764Y48535D01*
G01X29715Y48547D01*
G01X29665Y48556D01*
G01X29615Y48563D01*
G01X29565Y48568D01*
G01X29514Y48571D01*
G37*
G36*
G01X22111Y21788D02*
G01X21551Y21788D01*
G01X21551Y21228D01*
G01X21599Y21254D01*
G01X21645Y21281D01*
G01X21690Y21310D01*
G01X21734Y21341D01*
G01X21776Y21374D01*
G01X21818Y21408D01*
G01X21857Y21444D01*
G01X21895Y21482D01*
G01X21931Y21522D01*
G01X21966Y21563D01*
G01X21999Y21605D01*
G01X22029Y21649D01*
G01X22059Y21694D01*
G01X22086Y21740D01*
G01X22111Y21788D01*
G37*
G36*
G01X20424Y21788D02*
G01X19865Y21788D01*
G01X19890Y21740D01*
G01X19917Y21694D01*
G01X19946Y21649D01*
G01X19977Y21605D01*
G01X20010Y21563D01*
G01X20044Y21522D01*
G01X20081Y21482D01*
G01X20118Y21444D01*
G01X20158Y21408D01*
G01X20199Y21374D01*
G01X20241Y21341D01*
G01X20285Y21310D01*
G01X20331Y21281D01*
G01X20377Y21254D01*
G01X20424Y21228D01*
G01X20424Y21788D01*
G37*
G36*
G01X46172Y21788D02*
G01X45612Y21788D01*
G01X45638Y21740D01*
G01X45665Y21694D01*
G01X45694Y21649D01*
G01X45725Y21605D01*
G01X45758Y21563D01*
G01X45792Y21522D01*
G01X45828Y21482D01*
G01X45866Y21444D01*
G01X45906Y21408D01*
G01X45947Y21374D01*
G01X45989Y21341D01*
G01X46033Y21310D01*
G01X46078Y21281D01*
G01X46124Y21254D01*
G01X46172Y21228D01*
G01X46172Y21788D01*
G37*
G36*
G01X47859Y21788D02*
G01X47299Y21788D01*
G01X47299Y21228D01*
G01X47347Y21254D01*
G01X47393Y21281D01*
G01X47438Y21310D01*
G01X47482Y21341D01*
G01X47524Y21374D01*
G01X47565Y21408D01*
G01X47605Y21444D01*
G01X47643Y21482D01*
G01X47679Y21522D01*
G01X47713Y21563D01*
G01X47746Y21605D01*
G01X47777Y21649D01*
G01X47806Y21694D01*
G01X47833Y21740D01*
G01X47859Y21788D01*
G37*
G36*
G01X21599Y23449D02*
G01X21551Y23475D01*
G01X21551Y22915D01*
G01X22111Y22915D01*
G01X22086Y22963D01*
G01X22059Y23009D01*
G01X22029Y23054D01*
G01X21999Y23098D01*
G01X21966Y23140D01*
G01X21931Y23181D01*
G01X21895Y23221D01*
G01X21857Y23259D01*
G01X21818Y23295D01*
G01X21776Y23329D01*
G01X21734Y23362D01*
G01X21690Y23393D01*
G01X21645Y23422D01*
G01X21599Y23449D01*
G37*
G36*
G01X20424Y22915D02*
G01X20424Y23475D01*
G01X20377Y23449D01*
G01X20331Y23422D01*
G01X20285Y23393D01*
G01X20241Y23362D01*
G01X20199Y23329D01*
G01X20158Y23295D01*
G01X20118Y23259D01*
G01X20081Y23221D01*
G01X20044Y23181D01*
G01X20010Y23140D01*
G01X19977Y23098D01*
G01X19946Y23054D01*
G01X19917Y23009D01*
G01X19890Y22963D01*
G01X19865Y22915D01*
G01X20424Y22915D01*
G37*
G36*
G01X46172Y22915D02*
G01X46172Y23475D01*
G01X46124Y23449D01*
G01X46078Y23422D01*
G01X46033Y23393D01*
G01X45989Y23362D01*
G01X45947Y23329D01*
G01X45906Y23295D01*
G01X45866Y23259D01*
G01X45828Y23221D01*
G01X45792Y23181D01*
G01X45758Y23140D01*
G01X45725Y23098D01*
G01X45694Y23054D01*
G01X45665Y23009D01*
G01X45638Y22963D01*
G01X45612Y22915D01*
G01X46172Y22915D01*
G37*
G36*
G01X47347Y23449D02*
G01X47299Y23475D01*
G01X47299Y22915D01*
G01X47859Y22915D01*
G01X47833Y22963D01*
G01X47806Y23009D01*
G01X47777Y23054D01*
G01X47746Y23098D01*
G01X47713Y23140D01*
G01X47679Y23181D01*
G01X47643Y23221D01*
G01X47605Y23259D01*
G01X47565Y23295D01*
G01X47524Y23329D01*
G01X47482Y23362D01*
G01X47438Y23393D01*
G01X47393Y23422D01*
G01X47347Y23449D01*
G37*
G36*
G01X8686Y46680D02*
G01X8100Y46680D01*
G01X8100Y46243D01*
G01X8101Y46220D01*
G01X8104Y46197D01*
G01X8109Y46173D01*
G01X8117Y46151D01*
G01X8126Y46129D01*
G01X8138Y46109D01*
G01X8151Y46089D01*
G01X8167Y46071D01*
G01X8183Y46054D01*
G01X8202Y46039D01*
G01X8221Y46025D01*
G01X8242Y46014D01*
G01X8264Y46004D01*
G01X8286Y45997D01*
G01X8309Y45991D01*
G01X8332Y45988D01*
G01X8356Y45987D01*
G01X8686Y45987D01*
G01X8686Y46680D01*
G37*
G36*
G01X47859Y24328D02*
G01X47299Y24328D01*
G01X47299Y23768D01*
G01X47347Y23794D01*
G01X47393Y23821D01*
G01X47438Y23850D01*
G01X47482Y23881D01*
G01X47524Y23914D01*
G01X47565Y23948D01*
G01X47605Y23984D01*
G01X47643Y24022D01*
G01X47679Y24062D01*
G01X47713Y24103D01*
G01X47746Y24145D01*
G01X47777Y24189D01*
G01X47806Y24234D01*
G01X47833Y24280D01*
G01X47859Y24328D01*
G37*
G36*
G01X46172Y24328D02*
G01X45612Y24328D01*
G01X45638Y24280D01*
G01X45665Y24234D01*
G01X45694Y24189D01*
G01X45725Y24145D01*
G01X45758Y24103D01*
G01X45792Y24062D01*
G01X45828Y24022D01*
G01X45866Y23984D01*
G01X45906Y23948D01*
G01X45947Y23914D01*
G01X45989Y23881D01*
G01X46033Y23850D01*
G01X46078Y23821D01*
G01X46124Y23794D01*
G01X46172Y23768D01*
G01X46172Y24328D01*
G37*
G36*
G01X47347Y25989D02*
G01X47299Y26015D01*
G01X47299Y25455D01*
G01X47859Y25455D01*
G01X47833Y25503D01*
G01X47806Y25549D01*
G01X47777Y25594D01*
G01X47746Y25638D01*
G01X47713Y25680D01*
G01X47679Y25721D01*
G01X47643Y25761D01*
G01X47605Y25799D01*
G01X47565Y25835D01*
G01X47524Y25869D01*
G01X47482Y25902D01*
G01X47438Y25933D01*
G01X47393Y25962D01*
G01X47347Y25989D01*
G37*
G36*
G01X46172Y25455D02*
G01X46172Y26015D01*
G01X46124Y25989D01*
G01X46078Y25962D01*
G01X46033Y25933D01*
G01X45989Y25902D01*
G01X45947Y25869D01*
G01X45906Y25835D01*
G01X45866Y25799D01*
G01X45828Y25761D01*
G01X45792Y25721D01*
G01X45758Y25680D01*
G01X45725Y25638D01*
G01X45694Y25594D01*
G01X45665Y25549D01*
G01X45638Y25503D01*
G01X45612Y25455D01*
G01X46172Y25455D01*
G37*
G36*
G01X47859Y26868D02*
G01X47299Y26868D01*
G01X47299Y26308D01*
G01X47347Y26334D01*
G01X47393Y26361D01*
G01X47438Y26390D01*
G01X47482Y26421D01*
G01X47524Y26454D01*
G01X47565Y26488D01*
G01X47605Y26524D01*
G01X47643Y26562D01*
G01X47679Y26602D01*
G01X47713Y26643D01*
G01X47746Y26685D01*
G01X47777Y26729D01*
G01X47806Y26774D01*
G01X47833Y26820D01*
G01X47859Y26868D01*
G37*
G36*
G01X46172Y26868D02*
G01X45612Y26868D01*
G01X45638Y26820D01*
G01X45665Y26774D01*
G01X45694Y26729D01*
G01X45725Y26685D01*
G01X45758Y26643D01*
G01X45792Y26602D01*
G01X45828Y26562D01*
G01X45866Y26524D01*
G01X45906Y26488D01*
G01X45947Y26454D01*
G01X45989Y26421D01*
G01X46033Y26390D01*
G01X46078Y26361D01*
G01X46124Y26334D01*
G01X46172Y26308D01*
G01X46172Y26868D01*
G37*
G36*
G01X47347Y28529D02*
G01X47299Y28555D01*
G01X47299Y27995D01*
G01X47859Y27995D01*
G01X47833Y28043D01*
G01X47806Y28089D01*
G01X47777Y28134D01*
G01X47746Y28178D01*
G01X47713Y28220D01*
G01X47679Y28261D01*
G01X47643Y28301D01*
G01X47605Y28339D01*
G01X47565Y28375D01*
G01X47524Y28409D01*
G01X47482Y28442D01*
G01X47438Y28473D01*
G01X47393Y28502D01*
G01X47347Y28529D01*
G37*
G36*
G01X46172Y27995D02*
G01X46172Y28555D01*
G01X46124Y28529D01*
G01X46078Y28502D01*
G01X46033Y28473D01*
G01X45989Y28442D01*
G01X45947Y28409D01*
G01X45906Y28375D01*
G01X45866Y28339D01*
G01X45828Y28301D01*
G01X45792Y28261D01*
G01X45758Y28220D01*
G01X45725Y28178D01*
G01X45694Y28134D01*
G01X45665Y28089D01*
G01X45638Y28043D01*
G01X45612Y27995D01*
G01X46172Y27995D01*
G37*
G36*
G01X3624Y6065D02*
G01X3556Y6066D01*
G01X3487Y6065D01*
G01X3419Y6062D01*
G01X3351Y6057D01*
G01X3284Y6050D01*
G01X3216Y6040D01*
G01X3149Y6029D01*
G01X3082Y6016D01*
G01X3015Y6001D01*
G01X2949Y5983D01*
G01X2884Y5964D01*
G01X2819Y5943D01*
G01X2755Y5919D01*
G01X2692Y5894D01*
G01X2629Y5867D01*
G01X2567Y5838D01*
G01X2507Y5807D01*
G01X2447Y5775D01*
G01X2388Y5740D01*
G01X2330Y5704D01*
G01X2274Y5667D01*
G01X2218Y5627D01*
G01X2164Y5586D01*
G01X2111Y5543D01*
G01X2059Y5499D01*
G01X2009Y5452D01*
G01X1960Y5405D01*
G01X1913Y5356D01*
G01X1866Y5306D01*
G01X1822Y5254D01*
G01X1779Y5201D01*
G01X1738Y5147D01*
G01X1698Y5091D01*
G01X1661Y5035D01*
G01X1625Y4977D01*
G01X1590Y4918D01*
G01X1558Y4858D01*
G01X1527Y4798D01*
G01X1498Y4736D01*
G01X1471Y4673D01*
G01X1446Y4610D01*
G01X1422Y4546D01*
G01X1401Y4481D01*
G01X1382Y4416D01*
G01X1364Y4350D01*
G01X1349Y4283D01*
G01X1336Y4216D01*
G01X1325Y4149D01*
G01X1315Y4081D01*
G01X1308Y4014D01*
G01X1303Y3946D01*
G01X1300Y3878D01*
G01X1299Y3810D01*
G01X1300Y3741D01*
G01X1303Y3673D01*
G01X1308Y3605D01*
G01X1315Y3538D01*
G01X1325Y3470D01*
G01X1336Y3403D01*
G01X1349Y3336D01*
G01X1364Y3269D01*
G01X1382Y3203D01*
G01X1401Y3138D01*
G01X1422Y3073D01*
G01X1446Y3009D01*
G01X1471Y2946D01*
G01X1498Y2883D01*
G01X1527Y2821D01*
G01X1558Y2761D01*
G01X1590Y2701D01*
G01X1625Y2642D01*
G01X1661Y2584D01*
G01X1698Y2528D01*
G01X1738Y2472D01*
G01X1779Y2418D01*
G01X1822Y2365D01*
G01X1866Y2313D01*
G01X1913Y2263D01*
G01X1960Y2214D01*
G01X2009Y2167D01*
G01X2059Y2120D01*
G01X2111Y2076D01*
G01X2164Y2033D01*
G01X2218Y1992D01*
G01X2274Y1952D01*
G01X2330Y1915D01*
G01X2388Y1879D01*
G01X2447Y1844D01*
G01X2507Y1812D01*
G01X2567Y1781D01*
G01X2629Y1752D01*
G01X2692Y1725D01*
G01X2755Y1700D01*
G01X2819Y1676D01*
G01X2884Y1655D01*
G01X2949Y1636D01*
G01X3015Y1618D01*
G01X3082Y1603D01*
G01X3149Y1590D01*
G01X3216Y1579D01*
G01X3284Y1569D01*
G01X3351Y1562D01*
G01X3419Y1557D01*
G01X3487Y1554D01*
G01X3556Y1553D01*
G01X3624Y1554D01*
G01X3692Y1557D01*
G01X3760Y1562D01*
G01X3827Y1569D01*
G01X3895Y1579D01*
G01X3962Y1590D01*
G01X4029Y1603D01*
G01X4096Y1618D01*
G01X4162Y1636D01*
G01X4227Y1655D01*
G01X4292Y1676D01*
G01X4356Y1700D01*
G01X4419Y1725D01*
G01X4482Y1752D01*
G01X4544Y1781D01*
G01X4604Y1812D01*
G01X4664Y1844D01*
G01X4723Y1879D01*
G01X4781Y1915D01*
G01X4837Y1952D01*
G01X4893Y1992D01*
G01X4947Y2033D01*
G01X5000Y2076D01*
G01X5052Y2120D01*
G01X5102Y2167D01*
G01X5151Y2214D01*
G01X5198Y2263D01*
G01X5245Y2313D01*
G01X5289Y2365D01*
G01X5332Y2418D01*
G01X5373Y2472D01*
G01X5413Y2528D01*
G01X5450Y2584D01*
G01X5486Y2642D01*
G01X5521Y2701D01*
G01X5553Y2761D01*
G01X5584Y2821D01*
G01X5613Y2883D01*
G01X5640Y2946D01*
G01X5665Y3009D01*
G01X5689Y3073D01*
G01X5710Y3138D01*
G01X5729Y3203D01*
G01X5747Y3269D01*
G01X5762Y3336D01*
G01X5775Y3403D01*
G01X5786Y3470D01*
G01X5796Y3538D01*
G01X5803Y3605D01*
G01X5808Y3673D01*
G01X5811Y3741D01*
G01X5812Y3810D01*
G01X5811Y3878D01*
G01X5808Y3946D01*
G01X5803Y4014D01*
G01X5796Y4081D01*
G01X5786Y4149D01*
G01X5775Y4216D01*
G01X5762Y4283D01*
G01X5747Y4350D01*
G01X5729Y4416D01*
G01X5710Y4481D01*
G01X5689Y4546D01*
G01X5665Y4610D01*
G01X5640Y4673D01*
G01X5613Y4736D01*
G01X5584Y4798D01*
G01X5553Y4858D01*
G01X5521Y4918D01*
G01X5486Y4977D01*
G01X5450Y5035D01*
G01X5413Y5091D01*
G01X5373Y5147D01*
G01X5332Y5201D01*
G01X5289Y5254D01*
G01X5245Y5306D01*
G01X5198Y5356D01*
G01X5151Y5405D01*
G01X5102Y5452D01*
G01X5052Y5499D01*
G01X5000Y5543D01*
G01X4947Y5586D01*
G01X4893Y5627D01*
G01X4837Y5667D01*
G01X4781Y5704D01*
G01X4723Y5740D01*
G01X4664Y5775D01*
G01X4604Y5807D01*
G01X4544Y5838D01*
G01X4482Y5867D01*
G01X4419Y5894D01*
G01X4356Y5919D01*
G01X4292Y5943D01*
G01X4227Y5964D01*
G01X4162Y5983D01*
G01X4096Y6001D01*
G01X4029Y6016D01*
G01X3962Y6029D01*
G01X3895Y6040D01*
G01X3827Y6050D01*
G01X3760Y6057D01*
G01X3692Y6062D01*
G01X3624Y6065D01*
G37*
G36*
G01X42656Y38635D02*
G01X40656Y38635D01*
G01X40633Y38634D01*
G01X40610Y38631D01*
G01X40588Y38626D01*
G01X40566Y38619D01*
G01X40545Y38611D01*
G01X40525Y38600D01*
G01X40506Y38587D01*
G01X40488Y38573D01*
G01X40471Y38558D01*
G01X40456Y38540D01*
G01X40442Y38522D01*
G01X40431Y38502D01*
G01X40421Y38482D01*
G01X40412Y38461D01*
G01X40406Y38439D01*
G01X40402Y38416D01*
G01X40399Y38394D01*
G01X40397Y38378D01*
G01X40393Y38364D01*
G01X40387Y38350D01*
G01X40378Y38337D01*
G01X40368Y38326D01*
G01X40356Y38316D01*
G01X40342Y38308D01*
G01X40328Y38303D01*
G01X40313Y38299D01*
G01X40298Y38298D01*
G01X28829Y38298D01*
G01X28789Y38297D01*
G01X28749Y38294D01*
G01X28710Y38288D01*
G01X28672Y38280D01*
G01X28633Y38270D01*
G01X28595Y38259D01*
G01X28558Y38244D01*
G01X28522Y38228D01*
G01X28487Y38210D01*
G01X28453Y38190D01*
G01X28420Y38168D01*
G01X28388Y38144D01*
G01X28358Y38118D01*
G01X28329Y38091D01*
G01X21258Y31020D01*
G01X21246Y31009D01*
G01X21232Y31001D01*
G01X21217Y30995D01*
G01X21202Y30991D01*
G01X21186Y30990D01*
G01X19988Y30990D01*
G01X19965Y30989D01*
G01X19942Y30986D01*
G01X19919Y30981D01*
G01X19897Y30974D01*
G01X19876Y30965D01*
G01X19836Y30941D01*
G01X19819Y30926D01*
G01X19802Y30910D01*
G01X19787Y30893D01*
G01X19773Y30874D01*
G01X19761Y30854D01*
G01X19743Y30812D01*
G01X19737Y30789D01*
G01X19733Y30767D01*
G01X19730Y30752D01*
G01X19726Y30739D01*
G01X19719Y30725D01*
G01X19710Y30714D01*
G01X19700Y30704D01*
G01X19688Y30694D01*
G01X19675Y30687D01*
G01X19662Y30682D01*
G01X19647Y30679D01*
G01X19633Y30678D01*
G01X15315Y30678D01*
G01X15299Y30679D01*
G01X15284Y30683D01*
G01X15269Y30689D01*
G01X15256Y30697D01*
G01X15244Y30707D01*
G01X15233Y30719D01*
G01X15202Y30759D01*
G01X15169Y30799D01*
G01X15135Y30836D01*
G01X15099Y30873D01*
G01X15062Y30907D01*
G01X15023Y30941D01*
G01X14983Y30972D01*
G01X14942Y31002D01*
G01X14900Y31031D01*
G01X14856Y31057D01*
G01X14812Y31082D01*
G01X14766Y31105D01*
G01X14720Y31126D01*
G01X14673Y31145D01*
G01X14624Y31162D01*
G01X14576Y31177D01*
G01X14526Y31191D01*
G01X14477Y31202D01*
G01X14427Y31212D01*
G01X14376Y31219D01*
G01X14326Y31224D01*
G01X14274Y31227D01*
G01X14224Y31228D01*
G01X14173Y31227D01*
G01X14122Y31224D01*
G01X14072Y31219D01*
G01X14022Y31212D01*
G01X13972Y31203D01*
G01X13923Y31192D01*
G01X13874Y31179D01*
G01X13778Y31147D01*
G01X13731Y31128D01*
G01X13685Y31107D01*
G01X13640Y31084D01*
G01X13595Y31060D01*
G01X13552Y31034D01*
G01X13510Y31006D01*
G01X13469Y30976D01*
G01X13429Y30945D01*
G01X13390Y30912D01*
G01X13353Y30878D01*
G01X13317Y30842D01*
G01X13283Y30805D01*
G01X13250Y30766D01*
G01X13219Y30726D01*
G01X13189Y30685D01*
G01X13161Y30643D01*
G01X13135Y30600D01*
G01X13111Y30555D01*
G01X13088Y30510D01*
G01X13067Y30464D01*
G01X13048Y30417D01*
G01X13016Y30321D01*
G01X13003Y30272D01*
G01X12992Y30223D01*
G01X12983Y30173D01*
G01X12976Y30123D01*
G01X12971Y30073D01*
G01X12968Y30022D01*
G01X12967Y29972D01*
G01X12968Y29921D01*
G01X12971Y29870D01*
G01X12976Y29820D01*
G01X12983Y29770D01*
G01X12992Y29720D01*
G01X13003Y29671D01*
G01X13016Y29622D01*
G01X13048Y29526D01*
G01X13067Y29479D01*
G01X13088Y29433D01*
G01X13111Y29388D01*
G01X13135Y29343D01*
G01X13161Y29300D01*
G01X13189Y29258D01*
G01X13219Y29217D01*
G01X13250Y29177D01*
G01X13283Y29138D01*
G01X13317Y29101D01*
G01X13353Y29065D01*
G01X13390Y29031D01*
G01X13429Y28998D01*
G01X13469Y28967D01*
G01X13510Y28937D01*
G01X13552Y28909D01*
G01X13595Y28883D01*
G01X13640Y28859D01*
G01X13685Y28836D01*
G01X13731Y28815D01*
G01X13778Y28796D01*
G01X13874Y28764D01*
G01X13923Y28751D01*
G01X13972Y28740D01*
G01X14022Y28731D01*
G01X14072Y28724D01*
G01X14122Y28719D01*
G01X14173Y28716D01*
G01X14224Y28715D01*
G01X14274Y28716D01*
G01X14326Y28719D01*
G01X14376Y28724D01*
G01X14427Y28731D01*
G01X14477Y28741D01*
G01X14526Y28752D01*
G01X14576Y28766D01*
G01X14624Y28781D01*
G01X14673Y28798D01*
G01X14720Y28817D01*
G01X14766Y28838D01*
G01X14812Y28861D01*
G01X14856Y28886D01*
G01X14900Y28912D01*
G01X14942Y28941D01*
G01X14983Y28971D01*
G01X15023Y29002D01*
G01X15062Y29036D01*
G01X15099Y29070D01*
G01X15135Y29107D01*
G01X15169Y29144D01*
G01X15202Y29184D01*
G01X15233Y29224D01*
G01X15244Y29236D01*
G01X15256Y29246D01*
G01X15269Y29254D01*
G01X15284Y29260D01*
G01X15299Y29264D01*
G01X15315Y29265D01*
G01X19633Y29265D01*
G01X19647Y29264D01*
G01X19662Y29261D01*
G01X19675Y29256D01*
G01X19688Y29249D01*
G01X19700Y29239D01*
G01X19710Y29229D01*
G01X19719Y29218D01*
G01X19726Y29204D01*
G01X19730Y29191D01*
G01X19733Y29176D01*
G01X19737Y29154D01*
G01X19743Y29131D01*
G01X19761Y29089D01*
G01X19773Y29069D01*
G01X19787Y29050D01*
G01X19802Y29033D01*
G01X19819Y29017D01*
G01X19836Y29002D01*
G01X19876Y28978D01*
G01X19897Y28969D01*
G01X19919Y28962D01*
G01X19942Y28957D01*
G01X19965Y28954D01*
G01X19988Y28953D01*
G01X21988Y28953D01*
G01X22012Y28954D01*
G01X22035Y28958D01*
G01X22058Y28963D01*
G01X22080Y28970D01*
G01X22102Y28980D01*
G01X22123Y28992D01*
G01X22142Y29005D01*
G01X22160Y29020D01*
G01X22177Y29037D01*
G01X22192Y29055D01*
G01X22206Y29074D01*
G01X22217Y29095D01*
G01X22227Y29117D01*
G01X22235Y29139D01*
G01X22240Y29162D01*
G01X22243Y29186D01*
G01X22244Y29210D01*
G01X22244Y29966D01*
G01X22245Y29982D01*
G01X22249Y29997D01*
G01X22255Y30012D01*
G01X22264Y30026D01*
G01X22274Y30038D01*
G01X29092Y36855D01*
G01X29103Y36866D01*
G01X29117Y36874D01*
G01X29132Y36880D01*
G01X29148Y36884D01*
G01X29163Y36885D01*
G01X40298Y36885D01*
G01X40313Y36884D01*
G01X40328Y36880D01*
G01X40342Y36875D01*
G01X40356Y36867D01*
G01X40368Y36857D01*
G01X40378Y36846D01*
G01X40387Y36833D01*
G01X40393Y36819D01*
G01X40397Y36805D01*
G01X40399Y36789D01*
G01X40402Y36767D01*
G01X40406Y36744D01*
G01X40412Y36722D01*
G01X40421Y36701D01*
G01X40431Y36681D01*
G01X40442Y36661D01*
G01X40456Y36643D01*
G01X40471Y36625D01*
G01X40488Y36610D01*
G01X40506Y36596D01*
G01X40525Y36583D01*
G01X40545Y36572D01*
G01X40566Y36564D01*
G01X40588Y36557D01*
G01X40610Y36552D01*
G01X40633Y36549D01*
G01X40656Y36548D01*
G01X42656Y36548D01*
G01X42679Y36549D01*
G01X42702Y36552D01*
G01X42726Y36557D01*
G01X42748Y36565D01*
G01X42770Y36574D01*
G01X42790Y36586D01*
G01X42810Y36599D01*
G01X42828Y36615D01*
G01X42845Y36631D01*
G01X42860Y36650D01*
G01X42874Y36669D01*
G01X42885Y36690D01*
G01X42895Y36712D01*
G01X42902Y36734D01*
G01X42908Y36757D01*
G01X42911Y36780D01*
G01X42912Y36804D01*
G01X42912Y38379D01*
G01X42911Y38403D01*
G01X42908Y38426D01*
G01X42902Y38449D01*
G01X42895Y38471D01*
G01X42885Y38493D01*
G01X42874Y38514D01*
G01X42860Y38533D01*
G01X42845Y38552D01*
G01X42828Y38568D01*
G01X42810Y38584D01*
G01X42790Y38597D01*
G01X42770Y38609D01*
G01X42748Y38618D01*
G01X42726Y38626D01*
G01X42702Y38631D01*
G01X42679Y38634D01*
G01X42656Y38635D01*
G37*
G36*
G01X47859Y29408D02*
G01X47299Y29408D01*
G01X47299Y28848D01*
G01X47347Y28874D01*
G01X47393Y28901D01*
G01X47438Y28930D01*
G01X47482Y28961D01*
G01X47524Y28994D01*
G01X47565Y29028D01*
G01X47605Y29064D01*
G01X47643Y29102D01*
G01X47679Y29142D01*
G01X47713Y29183D01*
G01X47746Y29225D01*
G01X47777Y29269D01*
G01X47806Y29314D01*
G01X47833Y29360D01*
G01X47859Y29408D01*
G37*
G36*
G01X46172Y29408D02*
G01X45612Y29408D01*
G01X45638Y29360D01*
G01X45665Y29314D01*
G01X45694Y29269D01*
G01X45725Y29225D01*
G01X45758Y29183D01*
G01X45792Y29142D01*
G01X45828Y29102D01*
G01X45866Y29064D01*
G01X45906Y29028D01*
G01X45947Y28994D01*
G01X45989Y28961D01*
G01X46033Y28930D01*
G01X46078Y28901D01*
G01X46124Y28874D01*
G01X46172Y28848D01*
G01X46172Y29408D01*
G37*
G36*
G01X10400Y29527D02*
G01X9707Y29527D01*
G01X9707Y28953D01*
G01X10144Y28953D01*
G01X10167Y28954D01*
G01X10190Y28958D01*
G01X10214Y28963D01*
G01X10236Y28970D01*
G01X10258Y28980D01*
G01X10278Y28992D01*
G01X10298Y29005D01*
G01X10316Y29020D01*
G01X10333Y29037D01*
G01X10348Y29055D01*
G01X10362Y29074D01*
G01X10373Y29095D01*
G01X10383Y29117D01*
G01X10390Y29139D01*
G01X10396Y29162D01*
G01X10399Y29186D01*
G01X10400Y29210D01*
G01X10400Y29527D01*
G37*
G36*
G01X8580Y29527D02*
G01X7887Y29527D01*
G01X7887Y29210D01*
G01X7888Y29186D01*
G01X7891Y29162D01*
G01X7897Y29139D01*
G01X7904Y29117D01*
G01X7914Y29095D01*
G01X7925Y29074D01*
G01X7939Y29055D01*
G01X7954Y29037D01*
G01X7971Y29020D01*
G01X7989Y29005D01*
G01X8009Y28992D01*
G01X8029Y28980D01*
G01X8051Y28970D01*
G01X8073Y28963D01*
G01X8097Y28958D01*
G01X8120Y28954D01*
G01X8144Y28953D01*
G01X8580Y28953D01*
G01X8580Y29527D01*
G37*
G36*
G01X10187Y46680D02*
G01X9601Y46680D01*
G01X9601Y45987D01*
G01X9931Y45987D01*
G01X9955Y45988D01*
G01X9978Y45991D01*
G01X10001Y45997D01*
G01X10023Y46004D01*
G01X10045Y46014D01*
G01X10066Y46025D01*
G01X10085Y46039D01*
G01X10104Y46054D01*
G01X10120Y46071D01*
G01X10136Y46089D01*
G01X10149Y46109D01*
G01X10161Y46129D01*
G01X10170Y46151D01*
G01X10178Y46173D01*
G01X10183Y46197D01*
G01X10186Y46220D01*
G01X10187Y46243D01*
G01X10187Y46680D01*
G37*
G36*
G01X10143Y30990D02*
G01X9707Y30990D01*
G01X9707Y30416D01*
G01X10400Y30416D01*
G01X10400Y30734D01*
G01X10399Y30757D01*
G01X10396Y30781D01*
G01X10390Y30804D01*
G01X10383Y30826D01*
G01X10373Y30848D01*
G01X10362Y30869D01*
G01X10348Y30888D01*
G01X10333Y30906D01*
G01X10316Y30923D01*
G01X10298Y30938D01*
G01X10278Y30951D01*
G01X10258Y30963D01*
G01X10236Y30973D01*
G01X10214Y30980D01*
G01X10190Y30985D01*
G01X10167Y30989D01*
G01X10143Y30990D01*
G37*
G36*
G01X8580Y30990D02*
G01X8144Y30990D01*
G01X8120Y30989D01*
G01X8097Y30985D01*
G01X8073Y30980D01*
G01X8051Y30973D01*
G01X8029Y30963D01*
G01X8009Y30951D01*
G01X7989Y30938D01*
G01X7971Y30923D01*
G01X7954Y30906D01*
G01X7939Y30888D01*
G01X7925Y30869D01*
G01X7914Y30848D01*
G01X7904Y30826D01*
G01X7897Y30804D01*
G01X7891Y30781D01*
G01X7888Y30757D01*
G01X7887Y30734D01*
G01X7887Y30416D01*
G01X8580Y30416D01*
G01X8580Y30990D01*
G37*
G36*
G01X47347Y31069D02*
G01X47299Y31095D01*
G01X47299Y30535D01*
G01X47859Y30535D01*
G01X47833Y30583D01*
G01X47806Y30629D01*
G01X47777Y30674D01*
G01X47746Y30718D01*
G01X47713Y30760D01*
G01X47679Y30801D01*
G01X47643Y30841D01*
G01X47605Y30879D01*
G01X47565Y30915D01*
G01X47524Y30949D01*
G01X47482Y30982D01*
G01X47438Y31013D01*
G01X47393Y31042D01*
G01X47347Y31069D01*
G37*
G36*
G01X46172Y30535D02*
G01X46172Y31095D01*
G01X46124Y31069D01*
G01X46078Y31042D01*
G01X46033Y31013D01*
G01X45989Y30982D01*
G01X45947Y30949D01*
G01X45906Y30915D01*
G01X45866Y30879D01*
G01X45828Y30841D01*
G01X45792Y30801D01*
G01X45758Y30760D01*
G01X45725Y30718D01*
G01X45694Y30674D01*
G01X45665Y30629D01*
G01X45638Y30583D01*
G01X45612Y30535D01*
G01X46172Y30535D01*
G37*
G36*
G01X47736Y38635D02*
G01X47299Y38635D01*
G01X47299Y38049D01*
G01X47992Y38049D01*
G01X47992Y38379D01*
G01X47991Y38403D01*
G01X47988Y38426D01*
G01X47982Y38449D01*
G01X47975Y38471D01*
G01X47965Y38493D01*
G01X47954Y38514D01*
G01X47940Y38533D01*
G01X47925Y38552D01*
G01X47908Y38568D01*
G01X47890Y38584D01*
G01X47870Y38597D01*
G01X47850Y38609D01*
G01X47828Y38618D01*
G01X47806Y38626D01*
G01X47782Y38631D01*
G01X47759Y38634D01*
G01X47736Y38635D01*
G37*
G36*
G01X46172Y38635D02*
G01X45736Y38635D01*
G01X45712Y38634D01*
G01X45689Y38631D01*
G01X45665Y38626D01*
G01X45643Y38618D01*
G01X45621Y38609D01*
G01X45601Y38597D01*
G01X45581Y38584D01*
G01X45563Y38568D01*
G01X45546Y38552D01*
G01X45531Y38533D01*
G01X45517Y38514D01*
G01X45506Y38493D01*
G01X45496Y38471D01*
G01X45489Y38449D01*
G01X45483Y38426D01*
G01X45480Y38403D01*
G01X45479Y38379D01*
G01X45479Y38049D01*
G01X46172Y38049D01*
G01X46172Y38635D01*
G37*
G36*
G01X47992Y37134D02*
G01X47299Y37134D01*
G01X47299Y36548D01*
G01X47736Y36548D01*
G01X47759Y36549D01*
G01X47782Y36552D01*
G01X47806Y36557D01*
G01X47828Y36565D01*
G01X47850Y36574D01*
G01X47870Y36586D01*
G01X47890Y36599D01*
G01X47908Y36615D01*
G01X47925Y36631D01*
G01X47940Y36650D01*
G01X47954Y36669D01*
G01X47965Y36690D01*
G01X47975Y36712D01*
G01X47982Y36734D01*
G01X47988Y36757D01*
G01X47991Y36780D01*
G01X47992Y36804D01*
G01X47992Y37134D01*
G37*
G36*
G01X47859Y31948D02*
G01X47299Y31948D01*
G01X47299Y31388D01*
G01X47347Y31414D01*
G01X47393Y31441D01*
G01X47438Y31470D01*
G01X47482Y31501D01*
G01X47524Y31534D01*
G01X47565Y31568D01*
G01X47605Y31604D01*
G01X47643Y31642D01*
G01X47679Y31682D01*
G01X47713Y31723D01*
G01X47746Y31765D01*
G01X47777Y31809D01*
G01X47806Y31854D01*
G01X47833Y31900D01*
G01X47859Y31948D01*
G37*
G36*
G01X46172Y31948D02*
G01X45612Y31948D01*
G01X45638Y31900D01*
G01X45665Y31854D01*
G01X45694Y31809D01*
G01X45725Y31765D01*
G01X45758Y31723D01*
G01X45792Y31682D01*
G01X45828Y31642D01*
G01X45866Y31604D01*
G01X45906Y31568D01*
G01X45947Y31534D01*
G01X45989Y31501D01*
G01X46033Y31470D01*
G01X46078Y31441D01*
G01X46124Y31414D01*
G01X46172Y31388D01*
G01X46172Y31948D01*
G37*
G36*
G01X47347Y33609D02*
G01X47299Y33635D01*
G01X47299Y33075D01*
G01X47859Y33075D01*
G01X47833Y33123D01*
G01X47806Y33169D01*
G01X47777Y33214D01*
G01X47746Y33258D01*
G01X47713Y33300D01*
G01X47679Y33341D01*
G01X47643Y33381D01*
G01X47605Y33419D01*
G01X47565Y33455D01*
G01X47524Y33489D01*
G01X47482Y33522D01*
G01X47438Y33553D01*
G01X47393Y33582D01*
G01X47347Y33609D01*
G37*
G36*
G01X46172Y33075D02*
G01X46172Y33635D01*
G01X46124Y33609D01*
G01X46078Y33582D01*
G01X46033Y33553D01*
G01X45989Y33522D01*
G01X45947Y33489D01*
G01X45906Y33455D01*
G01X45866Y33419D01*
G01X45828Y33381D01*
G01X45792Y33341D01*
G01X45758Y33300D01*
G01X45725Y33258D01*
G01X45694Y33214D01*
G01X45665Y33169D01*
G01X45638Y33123D01*
G01X45612Y33075D01*
G01X46172Y33075D01*
G37*
G36*
G01X47859Y34488D02*
G01X47299Y34488D01*
G01X47299Y33928D01*
G01X47347Y33954D01*
G01X47393Y33981D01*
G01X47438Y34010D01*
G01X47482Y34041D01*
G01X47524Y34074D01*
G01X47565Y34108D01*
G01X47605Y34144D01*
G01X47643Y34182D01*
G01X47679Y34222D01*
G01X47713Y34263D01*
G01X47746Y34305D01*
G01X47777Y34349D01*
G01X47806Y34394D01*
G01X47833Y34440D01*
G01X47859Y34488D01*
G37*
G36*
G01X46172Y34488D02*
G01X45612Y34488D01*
G01X45638Y34440D01*
G01X45665Y34394D01*
G01X45694Y34349D01*
G01X45725Y34305D01*
G01X45758Y34263D01*
G01X45792Y34222D01*
G01X45828Y34182D01*
G01X45866Y34144D01*
G01X45906Y34108D01*
G01X45947Y34074D01*
G01X45989Y34041D01*
G01X46033Y34010D01*
G01X46078Y33981D01*
G01X46124Y33954D01*
G01X46172Y33928D01*
G01X46172Y34488D01*
G37*
G36*
G01X46172Y35615D02*
G01X46172Y36175D01*
G01X46124Y36149D01*
G01X46078Y36122D01*
G01X46033Y36093D01*
G01X45989Y36062D01*
G01X45947Y36029D01*
G01X45906Y35995D01*
G01X45866Y35959D01*
G01X45828Y35921D01*
G01X45792Y35881D01*
G01X45758Y35840D01*
G01X45725Y35798D01*
G01X45694Y35754D01*
G01X45665Y35709D01*
G01X45638Y35663D01*
G01X45612Y35615D01*
G01X46172Y35615D01*
G37*
G36*
G01X47347Y36149D02*
G01X47299Y36175D01*
G01X47299Y35615D01*
G01X47859Y35615D01*
G01X47833Y35663D01*
G01X47806Y35709D01*
G01X47777Y35754D01*
G01X47746Y35798D01*
G01X47713Y35840D01*
G01X47679Y35881D01*
G01X47643Y35921D01*
G01X47605Y35959D01*
G01X47565Y35995D01*
G01X47524Y36029D01*
G01X47482Y36062D01*
G01X47438Y36093D01*
G01X47393Y36122D01*
G01X47347Y36149D01*
G37*
G36*
G01X46172Y37134D02*
G01X45479Y37134D01*
G01X45479Y36804D01*
G01X45480Y36780D01*
G01X45483Y36757D01*
G01X45489Y36734D01*
G01X45496Y36712D01*
G01X45506Y36690D01*
G01X45517Y36669D01*
G01X45531Y36650D01*
G01X45546Y36631D01*
G01X45563Y36615D01*
G01X45581Y36599D01*
G01X45601Y36586D01*
G01X45621Y36574D01*
G01X45643Y36565D01*
G01X45665Y36557D01*
G01X45689Y36552D01*
G01X45712Y36549D01*
G01X45736Y36548D01*
G01X46172Y36548D01*
G01X46172Y37134D01*
G37*

%LPD*%
G54D11*
G01X29464Y47315D02*
G01X11755Y47315D01*
G01X11684Y47244D01*
G01X9969Y30099D02*
G01X9144Y30924D01*
G01X9144Y47244D01*
G01X34463Y43616D02*
G01X41727Y43616D01*
G01X44069Y40894D01*
G01X44069Y31496D01*
G01X43053Y30226D01*
G01X41783Y30226D01*
G01X41529Y29972D01*
G01X24465Y43616D02*
G01X34465Y43616D01*
G01X20157Y29972D02*
G01X21209Y29972D01*
G01X28829Y37592D01*
G01X41529Y37592D01*
G01X14224Y29972D02*
G01X20988Y29972D01*
G01X10807Y30099D02*
G01X18554Y22352D01*
G01X20828Y22352D01*
G01X41529Y35052D02*
G01X30099Y35052D01*
G01X22479Y27432D01*
G01X20988Y27432D01*
G01X31148Y29972D02*
G01X41529Y29972D01*
G01X9969Y30099D02*
G01X10807Y30099D01*
G01X9144Y30099D02*
G01X9969Y30099D01*
G01X20828Y14605D02*
G01X20828Y22352D01*
G01X20828Y12065D02*
G01X20955Y11938D01*
G01X20955Y8255D01*
G01X23495Y8255D02*
G01X25184Y8255D01*
G01X28702Y8211D02*
G01X28702Y8255D01*
G01X25184Y8255D01*
G01X31148Y27432D02*
G01X41529Y27432D01*
G01X31148Y24892D02*
G01X41529Y24892D01*
G01X31148Y22352D02*
G01X41529Y22352D01*
G01X28702Y18712D02*
G01X31148Y21158D01*
G01X31148Y22352D01*
G01X41529Y19812D02*
G01X36322Y14605D01*
G01X20828Y14605D01*
G01X46355Y19939D02*
G01X41656Y19939D01*
G01X41529Y19812D01*
G01X46736Y35052D02*
G01X46736Y37592D01*
G01X46736Y32512D02*
G01X46736Y35052D01*
G01X46736Y29972D02*
G01X46736Y32512D01*
G01X46736Y27432D02*
G01X46736Y29972D01*
G01X46736Y24892D02*
G01X46736Y27432D01*
G01X46736Y22352D02*
G01X46736Y24892D01*
G01X46736Y19812D02*
G01X46736Y22352D01*
G01X41529Y32512D02*
G01X30226Y32512D01*
G01X22606Y24892D01*
G01X20988Y24892D01*
G54D12*
G01X28702Y8212D03*
G01X28702Y18711D03*
G01X34463Y43616D03*
G01X24464Y43616D03*
G01X29464Y47315D03*
G36*
G01X8144Y30734D02*
G01X10143Y30734D01*
G01X10143Y29210D01*
G01X8144Y29210D01*
G01X8144Y30734D01*
G37*
G01X14224Y29972D03*
G36*
G01X19988Y30734D02*
G01X21988Y30734D01*
G01X21988Y29210D01*
G01X19988Y29210D01*
G01X19988Y30734D01*
G37*
G01X20988Y27432D03*
G01X20988Y24892D03*
G01X20988Y22352D03*
G01X31148Y22352D03*
G01X31148Y24892D03*
G01X31148Y27432D03*
G01X31148Y29972D03*
G54D14*
G01X46736Y37592D03*
G54D12*
G01X46736Y35052D03*
G01X46736Y32512D03*
G01X46736Y29972D03*
G01X46736Y27432D03*
G01X46736Y24892D03*
G01X46736Y22352D03*
G01X46736Y19812D03*
G54D14*
G01X41656Y37592D03*
G54D12*
G01X41656Y35052D03*
G01X41656Y32512D03*
G01X41656Y29972D03*
G01X41656Y27432D03*
G01X41656Y24892D03*
G01X41656Y22352D03*
G01X41656Y19812D03*
G01X20828Y14605D03*
G01X20828Y12065D03*
G54D15*
G01X23495Y8255D03*
G54D12*
G01X20955Y8255D03*
G54D16*
G01X9144Y47244D03*
G54D12*
G01X11684Y47244D03*
M00*
M02*
