;Layer: Drill PTH
;EasyEDA v6.4.7, 2020-12-07T19:31:32+01:00
;02f0051ec37e44d6b2a2dac138836381,6c12292d01d74c0c9c6e030c211cd8ae,10
;Gerber Generator version 0.2
M48
METRIC,LZ,000.000
;Holesize 1 = 0.501 METRIC
T01C0.501
%
G05
G90
T01
X+028702Y+008211
X+028702Y+018712
X+034463Y+043616
X+024464Y+043616
X+029464Y+047315
X+009144Y+029972
X+014224Y+029972
X+020988Y+029972
X+020988Y+027432
X+020988Y+024892
X+020988Y+022352
X+031148Y+022352
X+031148Y+024892
X+031148Y+027432
X+031148Y+029972
X+046736Y+037592
X+046736Y+035052
X+046736Y+032512
X+046736Y+029972
X+046736Y+027432
X+046736Y+024892
X+046736Y+022352
X+046736Y+019812
X+041656Y+037592
X+041656Y+035052
X+041656Y+032512
X+041656Y+029972
X+041656Y+027432
X+041656Y+024892
X+041656Y+022352
X+041656Y+019812
X+020828Y+014605
X+020828Y+012065
X+023495Y+008255
X+020955Y+008255
X+009144Y+047244
X+011684Y+047244
M30
